<svg xmlns="http://www.w3.org/2000/svg" width="185.176" height="97.978" viewBox="0 0 185.176 97.978">
  <g id="Group_81" data-name="Group 81" transform="translate(-186.522 -61.411)">
    <g id="logo-aprovado-mundo-pet-01" transform="translate(186.522 61.411)">
      <path id="Path_3" data-name="Path 3" d="M197.239,44.957a11.92,11.92,0,0,0-3.406-3.671A17.378,17.378,0,0,0,189.56,39.1a22.276,22.276,0,0,0-4.984-1.121,21.882,21.882,0,0,0-2.97-.514,21.532,21.532,0,0,0-2.191-.114,15.949,15.949,0,0,0-2.705.218,12.191,12.191,0,0,0-4.055,1.417,10.362,10.362,0,0,0-.883.582,17,17,0,0,0-4.278-1.791,19.416,19.416,0,0,0-3.78-.618,17.719,17.719,0,0,0-4.455-.545h-.151c-2.669.021-5.379.093-8.053.213a4.494,4.494,0,0,0-2.461.867c-.1,0-.2-.005-.3-.005-.187,0-.374.005-.561.021-.213.016-.426.036-.639.052a4.538,4.538,0,0,0-2.17-.55,2.8,2.8,0,0,0-.358.016c-1.345.1-2.679.218-3.967.343a4.414,4.414,0,0,0-2.923,1.49l-.083.1a7.819,7.819,0,0,0-1.516-.151,7.993,7.993,0,0,0-1.111.078c-.093.016-.187.026-.28.042a4.907,4.907,0,0,0-2.3-.561,5.294,5.294,0,0,0-.753.052c-1.044.145-2.087.3-3.131.457a4.374,4.374,0,0,0-2.679,1.485c-.026,0-.348.062-.478.088a4.541,4.541,0,0,0-2.238-.6,4.43,4.43,0,0,0-.82.078c-1.314.244-2.627.5-3.915.763a4.326,4.326,0,0,0-2.871,2.025c-.031.052-.062.1-.088.156-.13-.005-.265-.01-.395-.01a7.04,7.04,0,0,0-1.246.109c-.125.021-.358.073-.472.1-.093.021-.182.047-.275.067L113,43.322a4.551,4.551,0,0,0-2.233-.6,4.474,4.474,0,0,0-1.075.13l-1.23.312,1.989-5.291a5.531,5.531,0,0,0-3.229-7.123l-15.81-5.94A7.078,7.078,0,0,0,85.2,21.1a7.084,7.084,0,0,0-6.635,4.621L74.23,37.434c-.706-.042-1.423-.067-2.129-.067a35.341,35.341,0,0,0-4.616.306,9.184,9.184,0,0,0-5.472-1.791,9.559,9.559,0,0,0-1.282.088c-.67.093-1.319.213-1.926.348a15.946,15.946,0,0,0-3.9,1.376c-.2-.036-.41-.067-.613-.093a25.547,25.547,0,0,0-8.8-3.162,24.593,24.593,0,0,0-8.048-5.654,5.53,5.53,0,0,0-6.506,1.983c-.239.337-.467.685-.685,1.049a5.769,5.769,0,0,0-.986.13,5.362,5.362,0,0,0-.711.213,5.542,5.542,0,0,0-3.229,3.172l-.784,2.009a4.834,4.834,0,0,0-.644.2,5.528,5.528,0,0,0-3.235,3.193,21.489,21.489,0,0,0-1.023,3.889c-.976.135-1.615.254-1.656.26a5.485,5.485,0,0,0-4.5,5.254c-.322,9.875,5.41,17.611,8.146,20.721a53.57,53.57,0,0,0,3.1,11.838c2.726,6.843,6.641,11.661,11.64,14.335,1.646,2.477,5.9,7.99,12.565,10.727a5.65,5.65,0,0,0-.846.639A5.322,5.322,0,0,0,46.8,110.2a5.837,5.837,0,0,0-.467,2c-.01.249-.016.514-.016.784s.005.54.021.794a5.654,5.654,0,0,0,.462,1.973,5.426,5.426,0,0,0,1.267,1.8,5.563,5.563,0,0,0,1.88,1.153,6.248,6.248,0,0,0,2.16.369,6.139,6.139,0,0,0,2.144-.369,5.692,5.692,0,0,0,1.272-.665,3.785,3.785,0,0,0,2.529.966h3.172a3.8,3.8,0,0,0,1.371-.254c.016,0,.026.01.042.016a6.418,6.418,0,0,0,1.983.306,6.349,6.349,0,0,0,1.989-.312,5.851,5.851,0,0,0,.846-.363,5.385,5.385,0,0,0,.633.291,6.1,6.1,0,0,0,2.175.384,6.256,6.256,0,0,0,1.926-.3,3.745,3.745,0,0,0,1.293.228h.862a4.026,4.026,0,0,0,1.371-.239,4.026,4.026,0,0,0,1.371.239h.862a3.9,3.9,0,0,0,.784-.083,3.991,3.991,0,0,0,.789.083h.9a3.828,3.828,0,0,0,.914-.109,4.09,4.09,0,0,0,.945.109h.929a3.757,3.757,0,0,0,2.414-.867,5.712,5.712,0,0,0,1.08.55,6.1,6.1,0,0,0,2.175.384,6.194,6.194,0,0,0,2.02-.332l.156-.062a3.844,3.844,0,0,0,1.537.322h3.245a3.874,3.874,0,0,0,.919-.114,3.917,3.917,0,0,0,.924.114h.9a3.827,3.827,0,0,0,.914-.109,4.089,4.089,0,0,0,.945.109h.929a3.861,3.861,0,0,0,1.381-.26,3.751,3.751,0,0,0,1.381.26h.9a3.8,3.8,0,0,0,2-.571,6.352,6.352,0,0,0,.607.27,6.248,6.248,0,0,0,2.16.369,6.139,6.139,0,0,0,2.144-.369,5.691,5.691,0,0,0,1.272-.665,3.785,3.785,0,0,0,2.529.966h.9a3.762,3.762,0,0,0,1.859-.488,3.757,3.757,0,0,0,1.854.488h.862a4.026,4.026,0,0,0,1.371-.239,4.026,4.026,0,0,0,1.371.239h.862a3.939,3.939,0,0,0,.784-.083,3.951,3.951,0,0,0,.789.083h.9a3.827,3.827,0,0,0,.914-.109,4.089,4.089,0,0,0,.945.109h.929a3.6,3.6,0,0,1,1.277,0h.862a4.026,4.026,0,0,0,1.371-.239,4.026,4.026,0,0,0,1.371.239h.862a3.742,3.742,0,0,0,2.16-.68,6.321,6.321,0,0,0,1.049.452,6.389,6.389,0,0,0,1.963.3,7.08,7.08,0,0,0,1.776-.223,4.147,4.147,0,0,0,.431-.135,3.759,3.759,0,0,0,1.464.291H147.9a3.772,3.772,0,0,0,1.511-.317l.2.078a6.418,6.418,0,0,0,1.983.306,6.349,6.349,0,0,0,1.989-.312,5.759,5.759,0,0,0,1.132-.524,3.76,3.76,0,0,0,2.274.763h.862a4.026,4.026,0,0,0,1.371-.239,4.026,4.026,0,0,0,1.371.239h.862a3.765,3.765,0,0,1,1.573,0h.9a3.8,3.8,0,0,0,1.3-.228,3.782,3.782,0,0,0,1.3.228h.9a3.831,3.831,0,0,0,1.007-.135,3.8,3.8,0,0,0,1.007.135h.9a3.831,3.831,0,0,0,1.568-.337.543.543,0,0,0,.052.021,6.105,6.105,0,0,0,2.175.384,6.25,6.25,0,0,0,2-.322,6.958,6.958,0,0,0,.784-.332,5.257,5.257,0,0,0,.628.28,6.248,6.248,0,0,0,2.16.369,6.139,6.139,0,0,0,2.144-.369,5.612,5.612,0,0,0,1.9-1.158,5.481,5.481,0,0,0,1.267-1.8,5.713,5.713,0,0,0,.462-1.994c.01-.244.021-.5.021-.779s-.005-.535-.021-.81a5.764,5.764,0,0,0-.462-1.978,5.378,5.378,0,0,0-1.288-1.812,5.628,5.628,0,0,0-1.838-1.121,6.38,6.38,0,0,0-4.361,0,5.737,5.737,0,0,0-.6.27,6.529,6.529,0,0,0-.67-.3,6.138,6.138,0,0,0-2.108-.363,6.238,6.238,0,0,0-2.16.379.261.261,0,0,1-.067.026,3.832,3.832,0,0,0-1.568-.337h-.9a3.861,3.861,0,0,0-1.007.135,3.8,3.8,0,0,0-1.007-.135h-.794a3.97,3.97,0,0,0-1.4.254,3.991,3.991,0,0,0-1.4-.254h-.794a3.756,3.756,0,0,0-1.6.358,3.925,3.925,0,0,0-1.646-.358h-1.111a3.878,3.878,0,0,0-2.612.992,3.789,3.789,0,0,0-2.554-.992h-.9a3.976,3.976,0,0,0-1,.13,3.789,3.789,0,0,0-1-.13h-.9a3.668,3.668,0,0,0-.924.119,3.921,3.921,0,0,0-.924-.119h-3.193a3.829,3.829,0,0,0-1.547.327c-.057-.021-.109-.052-.171-.073a6.028,6.028,0,0,0-1.989-.327,6.128,6.128,0,0,0-1.952.306,5.618,5.618,0,0,0-1.755.95c-.057.047-.1.093-.156.14-.036-.042-.068-.083-.1-.125a3.879,3.879,0,0,0-2.845-1.21h-1.111a3.9,3.9,0,0,0-2.066.581,5.473,5.473,0,0,0-.976-.363,6.817,6.817,0,0,0-1.75-.218H126.4a3.756,3.756,0,0,0-1.6.358,3.925,3.925,0,0,0-1.646-.358h-1.111a3.929,3.929,0,0,0-1.89.478,5.848,5.848,0,0,0-2.435-.478h-1.931a7.265,7.265,0,0,0,2.139-1.8,6.974,6.974,0,0,0,1.329-6.371l-.088-.306a26.824,26.824,0,0,0,5.119-1.89,19.285,19.285,0,0,0,3.209-2l.265,1.293a4.691,4.691,0,0,0,1.059,2.144l.031.161a7.384,7.384,0,0,0,3.162,4.678,7.578,7.578,0,0,0,5.119,1.241c6.48-.763,13.068-1.334,19.589-1.693a6.755,6.755,0,0,0,.914-.109,7.3,7.3,0,0,0,4.491-2.736,7.4,7.4,0,0,0,1.417-3.126,7.71,7.71,0,0,0,1.937,3.261,7.452,7.452,0,0,0,5.327,2.253h.068c1-.01,2.014-.016,3.022-.016.8,0,1.6,0,2.4.01h.062a7.578,7.578,0,0,0,1.293-.114,7.273,7.273,0,0,0,4.47-2.741,7.708,7.708,0,0,0,1.558-5.291l-1.511-19.7c.607-.068,1.21-.13,1.807-.192.192-.021.379-.047.566-.078a7.51,7.51,0,0,0,4.7-2.949A7.834,7.834,0,0,0,190.78,65.7l-.161-3.011a15.578,15.578,0,0,0,1.921-.9,12.354,12.354,0,0,0,3.634-3.027,10.267,10.267,0,0,0,2.113-4.673c.1-.623.187-1.293.249-1.994s.093-1.371.1-2.113a9.98,9.98,0,0,0-1.391-5.073ZM113.32,107.822a.932.932,0,0,0-.1.1.794.794,0,0,0-.083-.057c.062-.01.13-.026.192-.036Zm-43.39-.924a6.086,6.086,0,0,0-1.838.363l-.042.016a3.733,3.733,0,0,0-1.236-.312c.213-.1.431-.2.644-.306.82.109,1.646.187,2.477.239Zm11.438.057H79.51a3.756,3.756,0,0,0-1.6.358,3.931,3.931,0,0,0-1.651-.358H75.143a3.859,3.859,0,0,0-2.092.6,6,6,0,0,0-.7-.306,5.852,5.852,0,0,0-1.215-.3c.3.005.587.016.883.016A34.9,34.9,0,0,0,95.86,97.542c.088-.078.171-.161.254-.244l1.35,4.3a4.355,4.355,0,0,0,1.947,2.445,7.06,7.06,0,0,0,2.046,3.131l-.083.031-.1-.031a6.817,6.817,0,0,0-1.75-.218H97.666a3.845,3.845,0,0,0-.95.125,3.845,3.845,0,0,0-.95-.125H92.573a3.844,3.844,0,0,0-1.537.322c-.052-.021-.1-.042-.151-.057a6.34,6.34,0,0,0-4.185.047,5.553,5.553,0,0,0-1.6.924c-.042-.031-.078-.073-.119-.1a5.438,5.438,0,0,0-1.874-.914,6.816,6.816,0,0,0-1.75-.218Zm79.178-22.31a7.567,7.567,0,0,0,.109-2.674s-.649-4.72-.649-4.73l.322-.047c.379-.067.758-.13,1.142-.2L162.5,87.49a7.614,7.614,0,0,0-1.952-2.84Z" transform="translate(-13.465 -21.1)" fill="#fff"/>
      <g id="Group_34" data-name="Group 34" transform="translate(36.222 89.676)">
        <path id="Path_4" data-name="Path 4" d="M83.246,195.688a2.1,2.1,0,0,1,.166-.722,1.749,1.749,0,0,1,.415-.587,1.94,1.94,0,0,1,.659-.395,2.5,2.5,0,0,1,.893-.145,2.468,2.468,0,0,1,.888.145,1.974,1.974,0,0,1,.659.395,1.66,1.66,0,0,1,.415.587,2.008,2.008,0,0,1,.166.722c.01.2.016.4.016.618s0,.415-.016.6a2.1,2.1,0,0,1-.166.722,1.77,1.77,0,0,1-.415.592,1.861,1.861,0,0,1-.659.395,2.609,2.609,0,0,1-.888.145,2.518,2.518,0,0,1-.893-.145,1.94,1.94,0,0,1-.659-.395,1.727,1.727,0,0,1-.415-.592,1.983,1.983,0,0,1-.166-.722c-.01-.187-.016-.389-.016-.6S83.23,195.886,83.246,195.688Zm3.006,1.184c0-.083.01-.171.016-.275s.005-.2.005-.306,0-.208-.005-.306-.01-.187-.016-.265a1.046,1.046,0,0,0-.073-.317.806.806,0,0,0-.166-.249.765.765,0,0,0-.265-.166,1.121,1.121,0,0,0-.737,0,.851.851,0,0,0-.265.166.749.749,0,0,0-.166.249,1.011,1.011,0,0,0-.073.317,2.022,2.022,0,0,0-.016.265v.613c0,.1.01.192.016.275a.922.922,0,0,0,.239.566.821.821,0,0,0,.633.228.8.8,0,0,0,.628-.228.967.967,0,0,0,.239-.566Z" transform="translate(-83.23 -193.83)" fill="#33348d"/>
        <path id="Path_5" data-name="Path 5" d="M101.829,197.657a.2.2,0,0,1,.187.187v.727a.2.2,0,0,1-.187.187H98.657a.2.2,0,0,1-.187-.187v-4.424a.16.16,0,0,1,.057-.13.186.186,0,0,1,.13-.057h.9a.2.2,0,0,1,.187.187v3.515h2.087Z" transform="translate(-90.557 -193.887)" fill="#33348d"/>
        <path id="Path_6" data-name="Path 6" d="M111.447,193.95a.2.2,0,0,1,.187.187v2.731a2.2,2.2,0,0,1-.151.836,1.606,1.606,0,0,1-.426.607,1.834,1.834,0,0,1-.659.374,2.7,2.7,0,0,1-.841.125,2.789,2.789,0,0,1-.851-.125,1.834,1.834,0,0,1-.659-.374,1.758,1.758,0,0,1-.426-.607,2.2,2.2,0,0,1-.151-.836v-2.731a.2.2,0,0,1,.187-.187h.9a.2.2,0,0,1,.187.187v2.705a.948.948,0,0,0,.2.644.92.92,0,0,0,1.225,0,.948.948,0,0,0,.2-.644v-2.705a.2.2,0,0,1,.187-.187h.9Z" transform="translate(-94.885 -193.883)" fill="#33348d"/>
        <path id="Path_7" data-name="Path 7" d="M120.379,194.925a1.055,1.055,0,0,0-.389.062.683.683,0,0,0-.4.431,1.486,1.486,0,0,0-.067.3,1.537,1.537,0,0,0-.016.249v.327c0,.114,0,.223.005.327a2.414,2.414,0,0,0,.016.249,1.155,1.155,0,0,0,.067.3.786.786,0,0,0,.151.254.74.74,0,0,0,.26.177,1.089,1.089,0,0,0,.389.067,1.431,1.431,0,0,0,.337-.042.751.751,0,0,0,.275-.13.6.6,0,0,0,.187-.234.8.8,0,0,0,.068-.348h-.576a.2.2,0,0,1-.187-.187v-.727a.2.2,0,0,1,.187-.187h1.656a.2.2,0,0,1,.187.187v.877a1.851,1.851,0,0,1-.166.789,1.7,1.7,0,0,1-.452.592,2.078,2.078,0,0,1-.675.374,2.6,2.6,0,0,1-.841.13,2.479,2.479,0,0,1-.883-.145,2.037,2.037,0,0,1-.659-.4,1.762,1.762,0,0,1-.421-.592,1.98,1.98,0,0,1-.166-.717c-.01-.187-.016-.389-.016-.6s0-.421.016-.618a1.9,1.9,0,0,1,.166-.716,1.762,1.762,0,0,1,.421-.592,2.037,2.037,0,0,1,.659-.4,2.736,2.736,0,0,1,1.745-.005,2.217,2.217,0,0,1,.649.358,1.756,1.756,0,0,1,.415.472,1.138,1.138,0,0,1,.166.488.144.144,0,0,1-.042.109.149.149,0,0,1-.109.047h-.909a.207.207,0,0,1-.161-.062c-.036-.042-.078-.083-.114-.125a1.034,1.034,0,0,0-.26-.228.914.914,0,0,0-.5-.1Z" transform="translate(-100.068 -193.83)" fill="#33348d"/>
        <path id="Path_8" data-name="Path 8" d="M131.194,193.95a.263.263,0,0,1,.208.078.417.417,0,0,1,.1.151l1.5,4.315a.248.248,0,0,1,.026.1.131.131,0,0,1-.047.1.16.16,0,0,1-.1.047h-.862a.289.289,0,0,1-.2-.057.236.236,0,0,1-.073-.114l-.192-.566h-1.822l-.192.566a.261.261,0,0,1-.073.114.264.264,0,0,1-.2.057H128.4a.149.149,0,0,1-.109-.047.133.133,0,0,1-.042-.1.417.417,0,0,1,.026-.1l1.5-4.315a.5.5,0,0,1,.1-.151.27.27,0,0,1,.208-.078h1.111Zm-1.111,2.991h1.111l-.556-1.646Z" transform="translate(-104.876 -193.883)" fill="#33348d"/>
        <path id="Path_9" data-name="Path 9" d="M141.875,193.95a2.984,2.984,0,0,1,.81.1,1.733,1.733,0,0,1,.607.286,1.232,1.232,0,0,1,.384.488,1.7,1.7,0,0,1,.135.7,1.58,1.58,0,0,1-.213.852,1.343,1.343,0,0,1-.6.519l.851,1.63a.146.146,0,0,1,.021.078.131.131,0,0,1-.047.1.138.138,0,0,1-.1.047h-.929a.264.264,0,0,1-.2-.062.65.65,0,0,1-.093-.125l-.758-1.464h-.628v1.464a.2.2,0,0,1-.187.187h-.9a.2.2,0,0,1-.187-.187v-4.424a.16.16,0,0,1,.057-.13.186.186,0,0,1,.13-.057h1.859Zm-.774,2.077h.774a.956.956,0,0,0,.478-.109.421.421,0,0,0,.187-.395.436.436,0,0,0-.187-.4.943.943,0,0,0-.478-.109H141.1v1.012Z" transform="translate(-110.448 -193.883)" fill="#33348d"/>
        <path id="Path_10" data-name="Path 10" d="M155.358,195.715c0,.062-.01.14-.01.249v.654c0,.109.005.192.01.249a1.408,1.408,0,0,0,.062.3.7.7,0,0,0,.151.254.791.791,0,0,0,.26.177,1.047,1.047,0,0,0,.389.068,1.153,1.153,0,0,0,.384-.057.833.833,0,0,0,.244-.135.52.52,0,0,0,.145-.177.837.837,0,0,0,.078-.177.436.436,0,0,1,.073-.156.2.2,0,0,1,.156-.047h.9a.15.15,0,0,1,.109.047.138.138,0,0,1,.047.1,1.4,1.4,0,0,1-.171.659,1.647,1.647,0,0,1-.452.535,2.261,2.261,0,0,1-.675.358,2.6,2.6,0,0,1-.841.135,2.479,2.479,0,0,1-.883-.145,2.037,2.037,0,0,1-.659-.4,1.762,1.762,0,0,1-.421-.592,1.98,1.98,0,0,1-.166-.717c-.01-.187-.016-.389-.016-.6s0-.421.016-.618a1.9,1.9,0,0,1,.166-.717,1.762,1.762,0,0,1,.421-.592,2.037,2.037,0,0,1,.659-.4,2.478,2.478,0,0,1,.883-.145,2.6,2.6,0,0,1,.841.135,2.26,2.26,0,0,1,.675.358,1.647,1.647,0,0,1,.452.535,1.466,1.466,0,0,1,.171.659.149.149,0,0,1-.047.109.145.145,0,0,1-.109.042h-.9a.224.224,0,0,1-.156-.042.436.436,0,0,1-.073-.156,1.674,1.674,0,0,0-.078-.177.751.751,0,0,0-.145-.177.833.833,0,0,0-.244-.135,1.131,1.131,0,0,0-.384-.057,1.055,1.055,0,0,0-.389.062.719.719,0,0,0-.26.177.663.663,0,0,0-.151.254,1.475,1.475,0,0,0-.062.3Z" transform="translate(-117.29 -193.825)" fill="#33348d"/>
        <path id="Path_11" data-name="Path 11" d="M168.442,197.657a.2.2,0,0,1,.187.187v.727a.2.2,0,0,1-.187.187H165.2a.2.2,0,0,1-.187-.187v-4.424a.16.16,0,0,1,.057-.13.186.186,0,0,1,.13-.057h3.193a.2.2,0,0,1,.187.187v.727a.2.2,0,0,1-.187.187h-2.108v.737h1.957a.2.2,0,0,1,.187.187v.727a.2.2,0,0,1-.187.187h-1.957v.768h2.165Z" transform="translate(-122.55 -193.887)" fill="#33348d"/>
        <path id="Path_12" data-name="Path 12" d="M176.855,193.95a2.984,2.984,0,0,1,.81.1,1.733,1.733,0,0,1,.607.286,1.231,1.231,0,0,1,.384.488,1.7,1.7,0,0,1,.135.7,1.58,1.58,0,0,1-.213.852,1.343,1.343,0,0,1-.6.519l.852,1.63a.147.147,0,0,1,.021.078.131.131,0,0,1-.047.1.138.138,0,0,1-.1.047h-.929a.264.264,0,0,1-.2-.062.65.65,0,0,1-.093-.125l-.758-1.464h-.628v1.464a.2.2,0,0,1-.187.187h-.9a.2.2,0,0,1-.187-.187v-4.424a.16.16,0,0,1,.057-.13.186.186,0,0,1,.13-.057h1.859Zm-.774,2.077h.774a.956.956,0,0,0,.478-.109.421.421,0,0,0,.187-.395.436.436,0,0,0-.187-.4.943.943,0,0,0-.478-.109h-.774v1.012Z" transform="translate(-127.266 -193.883)" fill="#33348d"/>
        <path id="Path_13" data-name="Path 13" d="M188.408,193.95a.2.2,0,0,1,.187.187v.727a.2.2,0,0,1-.187.187h-1.2v3.515a.2.2,0,0,1-.187.187h-.9a.2.2,0,0,1-.187-.187v-3.515h-1.2a.2.2,0,0,1-.187-.187v-.727a.2.2,0,0,1,.187-.187H188.4Z" transform="translate(-131.94 -193.883)" fill="#33348d"/>
        <path id="Path_14" data-name="Path 14" d="M194.386,195.688a2.094,2.094,0,0,1,.166-.722,1.749,1.749,0,0,1,.415-.587,1.94,1.94,0,0,1,.659-.395,2.5,2.5,0,0,1,.893-.145,2.468,2.468,0,0,1,.888.145,1.974,1.974,0,0,1,.659.395,1.66,1.66,0,0,1,.415.587,2.008,2.008,0,0,1,.166.722c.01.2.016.4.016.618s0,.415-.016.6a2.1,2.1,0,0,1-.166.722,1.77,1.77,0,0,1-.415.592,1.861,1.861,0,0,1-.659.395,2.608,2.608,0,0,1-.888.145,2.518,2.518,0,0,1-.893-.145,1.94,1.94,0,0,1-.659-.395,1.727,1.727,0,0,1-.415-.592,1.983,1.983,0,0,1-.166-.722c-.01-.187-.016-.389-.016-.6S194.37,195.886,194.386,195.688Zm3.006,1.184c0-.083.01-.171.016-.275s.005-.2.005-.306,0-.208-.005-.306-.01-.187-.016-.265a1.046,1.046,0,0,0-.073-.317.806.806,0,0,0-.166-.249.765.765,0,0,0-.265-.166,1.121,1.121,0,0,0-.737,0,.85.85,0,0,0-.265.166.749.749,0,0,0-.166.249,1.011,1.011,0,0,0-.073.317,2.016,2.016,0,0,0-.016.265v.613c0,.1.01.192.016.275a.922.922,0,0,0,.239.566.821.821,0,0,0,.633.228.8.8,0,0,0,.628-.228.966.966,0,0,0,.239-.566Z" transform="translate(-136.666 -193.83)" fill="#33348d"/>
        <path id="Path_15" data-name="Path 15" d="M211.739,193.95a2.855,2.855,0,0,1,.789.1,1.659,1.659,0,0,1,.6.3,1.307,1.307,0,0,1,.379.5,1.74,1.74,0,0,1,.135.7,1.766,1.766,0,0,1-.135.706,1.3,1.3,0,0,1-.379.5,1.746,1.746,0,0,1-.6.3,2.821,2.821,0,0,1-.789.1h-.877v1.4a.2.2,0,0,1-.187.187h-.9a.2.2,0,0,1-.187-.187v-4.424a.16.16,0,0,1,.057-.13.186.186,0,0,1,.13-.057h1.957Zm-.877,2.144h.841a.86.86,0,0,0,.478-.125.464.464,0,0,0,.187-.415.47.47,0,0,0-.187-.415.849.849,0,0,0-.478-.125h-.841Z" transform="translate(-143.984 -193.883)" fill="#33348d"/>
        <path id="Path_16" data-name="Path 16" d="M221.484,193.95a.263.263,0,0,1,.208.078.417.417,0,0,1,.1.151l1.5,4.315a.248.248,0,0,1,.026.1.131.131,0,0,1-.047.1.16.16,0,0,1-.1.047H222.3a.289.289,0,0,1-.2-.057.235.235,0,0,1-.073-.114l-.192-.566h-1.822l-.192.566a.261.261,0,0,1-.073.114.264.264,0,0,1-.2.057h-.862a.149.149,0,0,1-.109-.047.133.133,0,0,1-.042-.1.417.417,0,0,1,.026-.1l1.5-4.315a.5.5,0,0,1,.1-.151.27.27,0,0,1,.208-.078h1.111Zm-1.111,2.991h1.111l-.556-1.646Z" transform="translate(-148.287 -193.883)" fill="#33348d"/>
        <path id="Path_17" data-name="Path 17" d="M232.165,193.95a2.984,2.984,0,0,1,.81.1,1.733,1.733,0,0,1,.607.286,1.232,1.232,0,0,1,.384.488,1.7,1.7,0,0,1,.135.7,1.58,1.58,0,0,1-.213.852,1.343,1.343,0,0,1-.6.519l.852,1.63a.147.147,0,0,1,.021.078.131.131,0,0,1-.047.1.138.138,0,0,1-.1.047h-.929a.264.264,0,0,1-.2-.062.65.65,0,0,1-.093-.125l-.758-1.464H231.4v1.464a.2.2,0,0,1-.187.187h-.9a.2.2,0,0,1-.187-.187v-4.424a.16.16,0,0,1,.057-.13.186.186,0,0,1,.13-.057h1.859Zm-.774,2.077h.774a.956.956,0,0,0,.478-.109.421.421,0,0,0,.187-.395.436.436,0,0,0-.187-.4.942.942,0,0,0-.478-.109h-.774v1.012Z" transform="translate(-153.859 -193.883)" fill="#33348d"/>
        <path id="Path_18" data-name="Path 18" d="M242.694,193.95a.263.263,0,0,1,.208.078.418.418,0,0,1,.1.151l1.5,4.315a.248.248,0,0,1,.026.1.131.131,0,0,1-.047.1.16.16,0,0,1-.1.047h-.862a.289.289,0,0,1-.2-.057.236.236,0,0,1-.073-.114l-.192-.566h-1.822l-.192.566a.261.261,0,0,1-.073.114.264.264,0,0,1-.2.057H239.9a.149.149,0,0,1-.109-.047.133.133,0,0,1-.042-.1.418.418,0,0,1,.026-.1l1.5-4.315a.5.5,0,0,1,.1-.151.27.27,0,0,1,.208-.078h1.111Zm-1.111,2.991h1.111l-.556-1.646Z" transform="translate(-158.485 -193.883)" fill="#33348d"/>
        <path id="Path_19" data-name="Path 19" d="M256.612,193.82a2.492,2.492,0,0,1,.8.125,2.209,2.209,0,0,1,.633.327,1.72,1.72,0,0,1,.415.436.942.942,0,0,1,.156.457.149.149,0,0,1-.047.109.13.13,0,0,1-.1.042h-.9a.442.442,0,0,1-.156-.026.416.416,0,0,1-.119-.083c-.016-.016-.036-.036-.062-.068a.95.95,0,0,0-.125-.1.862.862,0,0,0-.208-.088,1.017,1.017,0,0,0-.3-.036,1.89,1.89,0,0,0-.249.016.852.852,0,0,0-.213.057.365.365,0,0,0-.151.109.245.245,0,0,0-.057.171.249.249,0,0,0,.062.171.523.523,0,0,0,.218.125,2.586,2.586,0,0,0,.41.114l.628.13a3.709,3.709,0,0,1,.659.192,1.592,1.592,0,0,1,.467.291,1.113,1.113,0,0,1,.28.41,1.51,1.51,0,0,1,.093.561,1.234,1.234,0,0,1-.156.623,1.451,1.451,0,0,1-.441.467,2.188,2.188,0,0,1-.67.3,3.314,3.314,0,0,1-.846.1,2.788,2.788,0,0,1-.852-.125,2.236,2.236,0,0,1-.659-.327,1.575,1.575,0,0,1-.436-.457,1.053,1.053,0,0,1-.166-.514.149.149,0,0,1,.047-.109.13.13,0,0,1,.1-.042h.9a.314.314,0,0,1,.151.026.664.664,0,0,1,.109.073c.021.021.047.047.083.088a.906.906,0,0,0,.145.125.979.979,0,0,0,.234.114,1.105,1.105,0,0,0,.348.047,2.009,2.009,0,0,0,.607-.078.294.294,0,0,0,.244-.286.217.217,0,0,0-.088-.171.841.841,0,0,0-.265-.125,4.472,4.472,0,0,0-.457-.114c-.187-.036-.4-.083-.654-.135a1.913,1.913,0,0,1-1.033-.5,1.328,1.328,0,0,1-.327-.94,1.24,1.24,0,0,1,.135-.561,1.4,1.4,0,0,1,.389-.472,2.085,2.085,0,0,1,.613-.327,2.6,2.6,0,0,1,.8-.119Z" transform="translate(-165.591 -193.82)" fill="#33348d"/>
        <path id="Path_20" data-name="Path 20" d="M268.752,197.657a.2.2,0,0,1,.187.187v.727a.2.2,0,0,1-.187.187h-3.245a.2.2,0,0,1-.187-.187v-4.424a.16.16,0,0,1,.057-.13.186.186,0,0,1,.13-.057H268.7a.2.2,0,0,1,.187.187v.727a.2.2,0,0,1-.187.187h-2.108v.737h1.957a.2.2,0,0,1,.187.187v.727a.2.2,0,0,1-.187.187h-1.957v.768h2.165Z" transform="translate(-170.779 -193.887)" fill="#33348d"/>
        <path id="Path_21" data-name="Path 21" d="M279.007,193.95a.2.2,0,0,1,.187.187v2.731a2.2,2.2,0,0,1-.151.836,1.606,1.606,0,0,1-.426.607,1.833,1.833,0,0,1-.659.374,2.7,2.7,0,0,1-.841.125,2.788,2.788,0,0,1-.852-.125,1.834,1.834,0,0,1-.659-.374,1.758,1.758,0,0,1-.426-.607,2.2,2.2,0,0,1-.151-.836v-2.731a.2.2,0,0,1,.187-.187h.9a.2.2,0,0,1,.187.187v2.705a.947.947,0,0,0,.2.644.92.92,0,0,0,1.225,0,.947.947,0,0,0,.2-.644v-2.705a.2.2,0,0,1,.187-.187h.9Z" transform="translate(-175.447 -193.883)" fill="#33348d"/>
        <path id="Path_22" data-name="Path 22" d="M292.064,193.95a.263.263,0,0,1,.208.078.418.418,0,0,1,.1.151l1.5,4.315a.248.248,0,0,1,.026.1.131.131,0,0,1-.047.1.16.16,0,0,1-.1.047h-.862a.289.289,0,0,1-.2-.057.236.236,0,0,1-.073-.114l-.192-.566h-1.822l-.192.566a.261.261,0,0,1-.073.114.264.264,0,0,1-.2.057h-.862a.149.149,0,0,1-.109-.047.133.133,0,0,1-.042-.1.416.416,0,0,1,.026-.1l1.5-4.315a.5.5,0,0,1,.1-.151.27.27,0,0,1,.208-.078h1.111Zm-1.111,2.991h1.111l-.556-1.646Z" transform="translate(-182.222 -193.883)" fill="#33348d"/>
        <path id="Path_23" data-name="Path 23" d="M302.7,197.538a.825.825,0,0,1-.093-.114l-.644-1.132v2.269a.2.2,0,0,1-.187.187h-.9a.2.2,0,0,1-.187-.187v-4.424a.16.16,0,0,1,.057-.13.186.186,0,0,1,.13-.057h.794a.263.263,0,0,1,.208.078.714.714,0,0,1,.088.109l1.111,1.9,1.111-1.9s.042-.057.088-.109a.263.263,0,0,1,.208-.078h.794a.2.2,0,0,1,.187.187v4.424a.2.2,0,0,1-.187.187h-.9a.2.2,0,0,1-.187-.187v-2.269l-.644,1.132a.566.566,0,0,1-.093.114.234.234,0,0,1-.161.057h-.436a.225.225,0,0,1-.161-.057Z" transform="translate(-187.785 -193.883)" fill="#33348d"/>
        <path id="Path_24" data-name="Path 24" d="M313.227,198.747a.2.2,0,0,1-.187-.187v-4.424a.16.16,0,0,1,.057-.13.186.186,0,0,1,.13-.057h.9a.2.2,0,0,1,.187.187v4.424a.2.2,0,0,1-.187.187Z" transform="translate(-193.723 -193.883)" fill="#33348d"/>
        <path id="Path_25" data-name="Path 25" d="M320.469,194.925a1.055,1.055,0,0,0-.389.062.683.683,0,0,0-.4.431,1.488,1.488,0,0,0-.068.3,1.539,1.539,0,0,0-.016.249v.327c0,.114,0,.223.005.327a2.412,2.412,0,0,0,.016.249,1.155,1.155,0,0,0,.068.3.787.787,0,0,0,.151.254.74.74,0,0,0,.26.177,1.089,1.089,0,0,0,.389.067,1.431,1.431,0,0,0,.337-.042.75.75,0,0,0,.275-.13.6.6,0,0,0,.187-.234.8.8,0,0,0,.067-.348h-.576a.2.2,0,0,1-.187-.187v-.727a.2.2,0,0,1,.187-.187h1.656a.2.2,0,0,1,.187.187v.877a1.851,1.851,0,0,1-.166.789,1.7,1.7,0,0,1-.452.592,2.078,2.078,0,0,1-.675.374,2.6,2.6,0,0,1-.841.13,2.479,2.479,0,0,1-.883-.145,2.036,2.036,0,0,1-.659-.4,1.762,1.762,0,0,1-.421-.592,1.981,1.981,0,0,1-.166-.717c-.01-.187-.016-.389-.016-.6s0-.421.016-.618a1.9,1.9,0,0,1,.166-.716,1.762,1.762,0,0,1,.421-.592,2.037,2.037,0,0,1,.659-.4,2.736,2.736,0,0,1,1.745-.005,2.216,2.216,0,0,1,.649.358,1.756,1.756,0,0,1,.415.472,1.138,1.138,0,0,1,.166.488.144.144,0,0,1-.042.109.149.149,0,0,1-.109.047h-.909a.207.207,0,0,1-.161-.062c-.036-.042-.078-.083-.114-.125a1.034,1.034,0,0,0-.26-.228.914.914,0,0,0-.5-.1Z" transform="translate(-196.271 -193.83)" fill="#33348d"/>
        <path id="Path_26" data-name="Path 26" d="M329.036,195.688a2.1,2.1,0,0,1,.166-.722,1.749,1.749,0,0,1,.415-.587,1.94,1.94,0,0,1,.659-.395,2.5,2.5,0,0,1,.893-.145,2.469,2.469,0,0,1,.888.145,1.973,1.973,0,0,1,.659.395,1.66,1.66,0,0,1,.415.587,2.007,2.007,0,0,1,.166.722c.01.2.016.4.016.618s0,.415-.016.6a2.094,2.094,0,0,1-.166.722,1.769,1.769,0,0,1-.415.592,1.861,1.861,0,0,1-.659.395,2.609,2.609,0,0,1-.888.145,2.518,2.518,0,0,1-.893-.145,1.94,1.94,0,0,1-.659-.395,1.727,1.727,0,0,1-.415-.592,1.984,1.984,0,0,1-.166-.722c-.01-.187-.016-.389-.016-.6S329.02,195.886,329.036,195.688Zm3.006,1.184c0-.083.01-.171.016-.275s.005-.2.005-.306,0-.208-.005-.306-.01-.187-.016-.265a1.046,1.046,0,0,0-.073-.317.805.805,0,0,0-.166-.249.765.765,0,0,0-.265-.166,1.121,1.121,0,0,0-.737,0,.85.85,0,0,0-.265.166.749.749,0,0,0-.166.249,1.011,1.011,0,0,0-.073.317,2.016,2.016,0,0,0-.016.265v.613c0,.1.01.192.016.275a.922.922,0,0,0,.239.566.821.821,0,0,0,.633.228.8.8,0,0,0,.628-.228.967.967,0,0,0,.239-.566Z" transform="translate(-201.406 -193.83)" fill="#33348d"/>
      </g>
      <g id="Group_78" data-name="Group 78" transform="translate(3.382 3.895)">
        <g id="Group_35" data-name="Group 35">
          <path id="Path_27" data-name="Path 27" d="M81.9,106.433a30.746,30.746,0,0,1-12.061.291,21.005,21.005,0,0,1-6.023,2.425,17.227,17.227,0,0,1-6.516.2c-9.159-1.5-14.5-10.119-15.14-11.21-4.585-2.108-8.193-6.407-10.737-12.783a49.653,49.653,0,0,1-3-11.968.471.471,0,0,0-.13-.27c-1.916-2.009-8.151-9.314-7.845-18.764A1.644,1.644,0,0,1,21.738,52.8a.185.185,0,0,0,.052-.01,34.682,34.682,0,0,1,4.366-.509,26.735,26.735,0,0,1,1.22-6.064,1.631,1.631,0,0,1,.966-.95,1.437,1.437,0,0,1,.213-.062,1.663,1.663,0,0,1,1.137.156c.078.042.249.135.467.275l1.874-4.8a1.642,1.642,0,0,1,.961-.945,1.438,1.438,0,0,1,.213-.062,1.652,1.652,0,0,1,1.132.156,7.959,7.959,0,0,1,.961.628A18.658,18.658,0,0,1,37.2,37.1a1.66,1.66,0,0,1,.986-.659,1.619,1.619,0,0,1,.95.073A21.591,21.591,0,0,1,46.7,42.223a21.626,21.626,0,0,1,9.465,3.287A6.875,6.875,0,0,1,58,45.8a1.52,1.52,0,0,1,.54.275,9.729,9.729,0,0,1,4.2-1.848c.509-.114,1.054-.213,1.615-.291A5.392,5.392,0,0,1,69.3,45.925c.073-.016.145-.026.213-.042a30.75,30.75,0,0,1,8.447-.395c.644.057,1.293.14,1.937.239L85.272,31.18a3.181,3.181,0,0,1,2.3-2.009,3.2,3.2,0,0,1,3.811,2.419c.026.109.042.223.057.332L108.932,38.5a1.646,1.646,0,0,1,.919.862,1.624,1.624,0,0,1,.042,1.256l-4.605,12.258a1.646,1.646,0,0,1-.862.919,1.808,1.808,0,0,1-.322.109,1.66,1.66,0,0,1-.94-.067L87.51,47.945A30.868,30.868,0,0,1,105.3,69.523a30.6,30.6,0,0,1-.13,14.07.184.184,0,0,1-.01.052,30.9,30.9,0,0,1-23.271,22.777ZM53.7,99.148a13.139,13.139,0,0,0,2.419,1.475c-.649-.509-1.277-1.038-1.885-1.6-.161.042-.327.078-.488.114l-.047.01Z" transform="translate(-20.2 -28.839)" fill="#fff"/>
          <path id="Path_28" data-name="Path 28" d="M81.728,106.434a31.074,31.074,0,0,1-12.066.312,21.315,21.315,0,0,1-6.018,2.409,17.294,17.294,0,0,1-6.609.2c-9.117-1.49-14.512-9.989-15.27-11.261-4.611-2.149-8.24-6.48-10.789-12.881a49.909,49.909,0,0,1-3.011-12.03.233.233,0,0,0-.062-.13c-1.937-2.03-8.224-9.4-7.913-18.94a1.884,1.884,0,0,1,1.537-1.8,35.56,35.56,0,0,1,4.19-.5,26.123,26.123,0,0,1,1.21-5.914,1.916,1.916,0,0,1,1.106-1.1,1.886,1.886,0,0,1,1.552.109c.047.026.13.067.228.13l1.765-4.527a1.893,1.893,0,0,1,2.653-.981,8.505,8.505,0,0,1,.742.462,18.693,18.693,0,0,1,1.812-3.276,1.893,1.893,0,0,1,2.233-.675,21.843,21.843,0,0,1,7.586,5.7,21.869,21.869,0,0,1,9.418,3.276,7.269,7.269,0,0,1,1.833.291,1.924,1.924,0,0,1,.462.2,10.318,10.318,0,0,1,4.154-1.781c.514-.114,1.064-.213,1.635-.3a5.605,5.605,0,0,1,5.088,1.973l.073-.016a31.037,31.037,0,0,1,8.515-.4c.581.052,1.168.125,1.75.208l5.306-14.361a3.436,3.436,0,0,1,6.578.441c.016.067.031.14.042.208l17.357,6.521a1.893,1.893,0,0,1,1.106,2.44l-4.605,12.258a1.891,1.891,0,0,1-.992,1.059,1.917,1.917,0,0,1-1.449.047L91.063,49.384a31.484,31.484,0,0,1,6.667,5.4,31.173,31.173,0,0,1,7.476,28.629.135.135,0,0,1-.016.057,31.151,31.151,0,0,1-23.463,22.959Zm-12.16-.208.088.016A30.692,30.692,0,0,0,104.708,83.35a.1.1,0,0,1,.01-.042,30.712,30.712,0,0,0-7.357-28.182A31.087,31.087,0,0,0,87.2,47.936l.187-.457,15.654,5.888a1.412,1.412,0,0,0,1.07-.036,1.376,1.376,0,0,0,.732-.784l4.605-12.258a1.4,1.4,0,0,0-.82-1.8L91,31.861l-.016-.151a2.9,2.9,0,0,0-.052-.306,2.949,2.949,0,0,0-5.644-.384L79.838,45.755l-.2-.031c-.633-.1-1.282-.177-1.921-.234a30.474,30.474,0,0,0-8.38.395l-.363.067-.093-.119a5.12,5.12,0,0,0-4.725-1.905c-.561.078-1.1.177-1.6.286a9.491,9.491,0,0,0-4.091,1.8l-.151.13-.156-.119a1.387,1.387,0,0,0-.462-.234,6.907,6.907,0,0,0-1.776-.275h-.067l-.057-.036a21.355,21.355,0,0,0-9.361-3.25l-.1-.01-.062-.073A21.364,21.364,0,0,0,38.816,36.5a1.438,1.438,0,0,0-.81-.062,1.406,1.406,0,0,0-.841.561,18.37,18.37,0,0,0-1.88,3.463l-.119.291-.254-.187a8.085,8.085,0,0,0-.929-.607,1.418,1.418,0,0,0-1.142-.078,1.386,1.386,0,0,0-.815.8l-1.983,5.083-.254-.161c-.213-.135-.374-.228-.452-.27a1.4,1.4,0,0,0-1.968.732,27.129,27.129,0,0,0-1.2,6l-.021.208-.213.01a35.248,35.248,0,0,0-4.33.5l-.042.01a1.4,1.4,0,0,0-1.09,1.319c-.306,9.351,5.877,16.588,7.778,18.587a.7.7,0,0,1,.192.41,49.487,49.487,0,0,0,2.98,11.9C33.935,91.331,37.5,95.588,42.025,97.67l.073.031.042.067c.576.981,5.893,9.605,14.969,11.09a16.843,16.843,0,0,0,6.423-.2,20.9,20.9,0,0,0,5.955-2.4l.078-.047Zm-11.859-4.74-1.921-.883a13.233,13.233,0,0,1-2.466-1.5l-.421-.322.561-.125c.161-.036.322-.073.483-.114l.13-.031.1.088c.6.55,1.231,1.085,1.869,1.589l1.661,1.3Z" transform="translate(-19.978 -28.602)" fill="#fff"/>
        </g>
        <g id="Group_36" data-name="Group 36" transform="translate(1.798 1.793)">
          <path id="Path_29" data-name="Path 29" d="M105.276,53.815l4.605-12.258-18.707-7.03.067-.187a1.545,1.545,0,1,0-2.9-1.075L82.493,49.106a27.591,27.591,0,0,0-3.152-.462,29.3,29.3,0,0,0-8,.374c-.353.067-.7.135-1.054.218l-.275.062a3.661,3.661,0,0,0-3.91-2.222c-2.316.327-5.4,1.142-5.9,3.183a4.1,4.1,0,0,0-1.267.28,12.3,12.3,0,0,0,.119-1.651,4.9,4.9,0,0,0-1.833-.2,19.9,19.9,0,0,0-9.818-3.359,20.243,20.243,0,0,0-7.347-5.758,18.627,18.627,0,0,0-2.534,5.509,9.157,9.157,0,0,0-2.456-2.113L32.318,50.03a5.481,5.481,0,0,0-1.9-1.693,31.011,31.011,0,0,0-1.241,7.082,32.6,32.6,0,0,0-5.571.509C23.325,64.754,29.234,71.644,31,73.5a2.126,2.126,0,0,1,.571,1.21c.421,3.551,2.856,19.356,13.307,23.67a2.21,2.21,0,0,0,.166.358c.208.369,5.244,9.06,14.029,10.5a15.337,15.337,0,0,0,5.893-.182A20,20,0,0,0,71.04,106.5a29.258,29.258,0,0,0,31.027-14.185,29.537,29.537,0,0,0,3.027-7.549h0A29.28,29.28,0,0,0,85.5,49.885L86.636,46.8l18.639,7Zm-45.4,50.726c-3.619-.582-6.5-3.006-8.354-5.062a18.025,18.025,0,0,0,4.683-.774,29.414,29.414,0,0,0,8.094,5.6,10.682,10.682,0,0,1-4.424.234Z" transform="translate(-23.518 -32.152)" fill="#fff"/>
          <path id="Path_30" data-name="Path 30" d="M83,106.329a29.1,29.1,0,0,1-12.014.171,19.714,19.714,0,0,1-6.069,2.544,15.425,15.425,0,0,1-5.924.182c-8.842-1.449-13.878-10.166-14.091-10.54-.062-.114-.114-.223-.161-.332C40.3,96.506,36.789,92.42,34.312,86.2a48.142,48.142,0,0,1-2.9-11.568,2.04,2.04,0,0,0-.545-1.163c-1.812-1.9-7.7-8.8-7.419-17.637v-.067l.067-.01a32.813,32.813,0,0,1,5.509-.514,30.625,30.625,0,0,1,1.241-7.03l.031-.088.083.042a5.876,5.876,0,0,1,1.843,1.578l2.731-7,.083.042A9.382,9.382,0,0,1,37.417,44.8a18.512,18.512,0,0,1,2.5-5.379l.036-.052.062.021a20.6,20.6,0,0,1,7.357,5.753,20.06,20.06,0,0,1,9.8,3.354,5.007,5.007,0,0,1,1.838.208l.057.016v.062a14.232,14.232,0,0,1-.093,1.521,4.08,4.08,0,0,1,1.1-.239c.545-2.014,3.525-2.84,5.95-3.183a3.765,3.765,0,0,1,3.972,2.207l.208-.047q.53-.117,1.059-.218a29.477,29.477,0,0,1,8.016-.379,27.843,27.843,0,0,1,3.089.452l5.831-15.773a1.627,1.627,0,1,1,3.053,1.127l-.042.109,18.707,7.03-.031.078L105.246,53.8l-.078-.031L86.606,46.788l-1.08,2.928a29.317,29.317,0,0,1,19.7,21.552,29.07,29.07,0,0,1-.13,13.385v.021a29.355,29.355,0,0,1-22.1,21.63Zm-12.045,0h.031a29.206,29.206,0,0,0,25.581-7.357,29.308,29.308,0,0,0,8.364-14.294v-.021a28.828,28.828,0,0,0,.14-13.328A29.31,29.31,0,0,0,85.4,49.872l-.083-.026,1.2-3.245,18.639,7.009,4.548-12.1-18.707-7.03.1-.265a1.46,1.46,0,0,0-.909-1.9,1.463,1.463,0,0,0-1.838.883L82.468,49.108l-.067-.016a28.791,28.791,0,0,0-3.141-.462A29.172,29.172,0,0,0,71.285,49c-.348.062-.7.135-1.054.213l-.343.078-.026-.068a3.593,3.593,0,0,0-3.821-2.17c-2.394.337-5.348,1.153-5.825,3.12l-.016.062h-.067a4.183,4.183,0,0,0-1.236.275l-.14.057.031-.151a10.559,10.559,0,0,0,.114-1.573,4.885,4.885,0,0,0-1.739-.182h-.031l-.026-.01a19.875,19.875,0,0,0-9.777-3.349h-.036l-.021-.031a20.714,20.714,0,0,0-7.253-5.711,18.424,18.424,0,0,0-2.482,5.426l-.042.156-.1-.125a9.536,9.536,0,0,0-2.352-2.051L32.251,50.11l-.083-.151a5.327,5.327,0,0,0-1.781-1.615,31.856,31.856,0,0,0-1.2,6.968v.078H29.1a32.438,32.438,0,0,0-5.488.493c-.254,8.743,5.576,15.566,7.373,17.45a2.186,2.186,0,0,1,.592,1.256c.374,3.183,2.783,19.278,13.255,23.608l.031.016.01.036a2.037,2.037,0,0,0,.161.343c.208.369,5.208,9.024,13.972,10.457a15.385,15.385,0,0,0,5.862-.182,19.584,19.584,0,0,0,6.043-2.544l.026-.016Zm-7.082-1.947a10.747,10.747,0,0,1-4.081.145h0c-3.686-.592-6.6-3.094-8.4-5.088l-.119-.13h.177a18.474,18.474,0,0,0,4.657-.774l.047-.016.036.036a29.106,29.106,0,0,0,8.074,5.587l.208.1-.223.057c-.125.031-.249.062-.374.088Zm-4.055-.016a10.612,10.612,0,0,0,4.169-.177A29.493,29.493,0,0,1,56.108,98.7a17.856,17.856,0,0,1-4.481.753c1.786,1.952,4.626,4.335,8.188,4.906h0Z" transform="translate(-23.441 -32.055)" fill="#0f227a"/>
        </g>
        <g id="Group_74" data-name="Group 74" transform="translate(1.886 1.897)">
          <path id="Path_31" data-name="Path 31" d="M140.629,160.359a29.323,29.323,0,0,1-25.659,7.383,30.284,30.284,0,0,0,4.206-3.172,2.28,2.28,0,0,0,.462-.566h0a11.567,11.567,0,0,1,10.649-2.8c6.573,1.511,4.725-3.416,10.332-.836Z" transform="translate(-67.536 -93.484)" fill="#35ef4b"/>
          <g id="Group_38" data-name="Group 38" transform="translate(23.81 16.272)">
            <path id="Path_32" data-name="Path 32" d="M135.4,86.542a1.57,1.57,0,0,1-2.736.55c-.955-.9-1.594-.322-1.729.228a2.062,2.062,0,0,0,.083,1.147,4.185,4.185,0,0,1-.145,3.11,2.094,2.094,0,0,0-.088,1.506c1.36,4.351-.306,4.19-.306,4.19-7.793.042-1.713-14.844-8.956-17.466s-1.983-8.229-7.5-9.719c-5.446-1.469-4.481-6.246-4.455-6.365h0a29.078,29.078,0,0,0-8,.358s2.378,2.336-.14,5.457-1.459,6.6.945,8.961.758,6.044-2.773,6.069-2.227,6.739.732,8.037,3.11,8.016-3.432,10.207A15.971,15.971,0,0,1,86.33,113.732a29.546,29.546,0,0,0,8.084,5.623,19.1,19.1,0,0,0,7.778-4.512,2.385,2.385,0,0,1,3.64,3h0a11.58,11.58,0,0,1,10.654-2.778c6.568,1.526,4.73-3.406,10.337-.815a29.286,29.286,0,0,0,5.384-6.791h0c-.026-.119-1.376-5.883-.114-9.538a1.39,1.39,0,0,1,2.586-.125,7.072,7.072,0,0,1,.571,2.118,29.094,29.094,0,0,0,.161-13.369ZM115.27,105.275c-4.013,4.522-3.38-.3-3-2.264a2.338,2.338,0,0,0-.187-1.454c-.986-2.051-3.5-8.006-.026-9.086,4.206-1.308,2.861,2.887,6.1,1.848s2.056,5.384-2.887,10.955Z" transform="translate(-77.576 -63.596)" fill="#00bdff"/>
            <g id="Group_37" data-name="Group 37" transform="translate(0 0.126)">
              <path id="Path_33" data-name="Path 33" d="M177.1,130.813a29.137,29.137,0,0,1-3.042,7.539c-.026-.114-1.376-5.877-.114-9.538a1.39,1.39,0,0,1,2.586-.125,7.071,7.071,0,0,1,.571,2.118Z" transform="translate(-119.441 -94.625)" fill="#35ef4b"/>
              <path id="Path_34" data-name="Path 34" d="M93.317,69.992c-2.518,3.115-1.459,6.6.945,8.961S95.02,85,91.489,85.022s-2.227,6.739.732,8.037,3.11,8.016-3.432,10.207c.992-3.463.509-6.454-1.116-6.848-4.18-1.023-6.661,4.984-6.661,4.984h0a8.488,8.488,0,0,0-4.081-.659,7.584,7.584,0,0,0-5.685,2.617c-.213-.582-.4-1.168-.582-1.77C80.84,94.83,83.359,88.579,81,86.082c-1.9-2.014-3.6-.95-4.268-.369a.526.526,0,0,1-.607.057c-1.724-1.044-3.209,2.809-3.593,3.92a1.2,1.2,0,0,1-.337.509L69.47,92.686a29.315,29.315,0,0,1,13.613-24.1c.369.374,1.023.685,2.03-.031a.716.716,0,0,1,.857.01c.592.467,1.952,1.044,4.61-.062a2.54,2.54,0,0,0,1.786-2.648,3.405,3.405,0,0,0-.234-1.038l.275-.062c.353-.078.706-.151,1.059-.213,0,0,2.378,2.336-.14,5.457Z" transform="translate(-69.47 -64.177)" fill="#35ef4b"/>
              <path id="Path_35" data-name="Path 35" d="M156.844,86.659a1.57,1.57,0,0,1-2.736.55c-.955-.9-1.594-.322-1.729.228a2.062,2.062,0,0,0,.083,1.147,4.185,4.185,0,0,1-.145,3.11,2.094,2.094,0,0,0-.088,1.506c1.36,4.351-.306,4.19-.306,4.19-7.793.042-1.713-14.844-8.956-17.466s-1.983-8.229-7.5-9.719c-5.446-1.469-4.481-6.246-4.455-6.365a28.991,28.991,0,0,1,3.152.467l-.161.431a1.542,1.542,0,0,0,.955,2,1.55,1.55,0,0,0,1.942-.924l.265-.722A29.251,29.251,0,0,1,156.85,86.659Z" transform="translate(-99.021 -63.84)" fill="#35ef4b"/>
              <path id="Path_36" data-name="Path 36" d="M137.447,131.767c-4.013,4.522-3.38-.3-3-2.264a2.337,2.337,0,0,0-.187-1.454c-.986-2.051-3.5-8.006-.026-9.086,4.206-1.308,2.861,2.887,6.1,1.848s2.056,5.384-2.887,10.955Z" transform="translate(-99.753 -90.22)" fill="#35ef4b"/>
            </g>
          </g>
          <path id="Path_37" data-name="Path 37" d="M115.248,164.739h0a2.386,2.386,0,0,0-.275-2.8,2.326,2.326,0,0,0-.794-.581,1.271,1.271,0,0,0-.125-.052c-.057-.021-.109-.042-.166-.057s-.1-.026-.151-.042a1.245,1.245,0,0,0-.135-.026,2.376,2.376,0,0,0-2,.571,21.7,21.7,0,0,1-5.774,3.842,24.858,24.858,0,0,0,4.543,1.34c.628.119,1.308.228,2.04.312.789-.581,1.584-1.225,2.368-1.931a2.28,2.28,0,0,0,.462-.566Z" transform="translate(-63.142 -94.224)" fill="none"/>
          <g id="Group_39" data-name="Group 39" transform="translate(25.627 20.547)" opacity="0.3">
            <path id="Path_38" data-name="Path 38" d="M74.206,93.247c.379-1.111,1.854-4.964,3.582-3.925a.525.525,0,0,0,.607-.057c.047-.036.093-.078.145-.125A29.268,29.268,0,0,1,84.9,72.282c.119-.151.244-.3.369-.452-.171.1-.348.213-.519.322-.4.254-.8.524-1.189.8C81.225,75.433,73.266,84.628,72.98,94.509a.309.309,0,0,1-.01.067l.893-.82a1.275,1.275,0,0,0,.332-.509Z" transform="translate(-72.97 -71.83)" fill="#0f227a"/>
          </g>
          <g id="Group_40" data-name="Group 40" transform="translate(26.422 47.551)" opacity="0.3">
            <path id="Path_39" data-name="Path 39" d="M79.437,129.441a8.872,8.872,0,0,1,3.588.447,28.706,28.706,0,0,1-2.435-5.748,37.94,37.94,0,0,1-5.929,5.125c.14.5.3,1.012.478,1.537a8.327,8.327,0,0,1,4.294-1.36Z" transform="translate(-74.577 -123.984)" fill="#0f227a"/>
            <path id="Path_40" data-name="Path 40" d="M83.129,129.9l-.208-.078a8.772,8.772,0,0,0-3.551-.441h0a8.288,8.288,0,0,0-4.252,1.35l-.088.062-.036-.1c-.177-.509-.337-1.028-.478-1.542l-.016-.057.047-.031a37.869,37.869,0,0,0,5.914-5.114l.1-.1.042.14a29.178,29.178,0,0,0,2.425,5.732l.109.192Zm-5.394-.457a9.969,9.969,0,0,1,1.625-.223h0a9.074,9.074,0,0,1,3.416.384,29.176,29.176,0,0,1-2.295-5.441,38.525,38.525,0,0,1-5.794,5c.13.457.27.919.426,1.376a7.678,7.678,0,0,1,2.627-1.09Z" transform="translate(-74.5 -123.84)" fill="#0f227a"/>
          </g>
          <g id="Group_41" data-name="Group 41" transform="translate(34.402 60.718)" opacity="0.3">
            <path id="Path_41" data-name="Path 41" d="M127.18,154.657a29.253,29.253,0,0,1-20.617.758c-.042-.016-.083-.026-.13-.042s-.109-.036-.166-.057-.093-.031-.145-.052l-.125-.047a29.432,29.432,0,0,1-9.943-6.018,15.586,15.586,0,0,1-6.184,5.041,34.662,34.662,0,0,0,5.083,3.962,19.466,19.466,0,0,0,3.188,1.646,21.577,21.577,0,0,0,5.774-3.842,2.376,2.376,0,0,1,2-.571c.042.01.088.016.135.026s.1.026.151.042.109.036.166.057a1.264,1.264,0,0,1,.125.052,2.379,2.379,0,0,1,1.07,3.38h0a2.4,2.4,0,0,1-.462.571q-1.184,1.059-2.368,1.931a29.528,29.528,0,0,0,22.44-6.838Z" transform="translate(-89.87 -149.2)" fill="#0f227a"/>
          </g>
          <g id="Group_42" data-name="Group 42" transform="translate(42.041 16.767)" opacity="0.3">
            <path id="Path_42" data-name="Path 42" d="M110.282,64.55c-.353.067-.706.135-1.054.218-.052.01-.1.026-.156.036.545.877,1.2,2.684-.566,4.88-2.513,3.12-1.443,6.6.961,8.956s.774,6.043-2.762,6.075-2.212,6.744.748,8.037c2.627,1.147,3.048,6.568-1.464,9.314-.078.4-.171.81-.291,1.225,6.537-2.2,6.371-8.925,3.411-10.213s-4.283-8.006-.748-8.037,5.166-3.717,2.762-6.075-3.473-5.836-.961-8.956.13-5.457.13-5.457Z" transform="translate(-104.582 -64.55)" fill="#0f227a"/>
          </g>
          <g id="Group_43" data-name="Group 43" transform="translate(55.661 16.394)" opacity="0.3">
            <path id="Path_43" data-name="Path 43" d="M144.187,78.866c-7.253-2.606-2-8.224-7.518-9.7-3.806-1.018-4.486-3.655-4.543-5.192q-.615-.086-1.23-.14c-.026.114-.981,4.9,4.465,6.355,5.519,1.475.27,7.092,7.518,9.7s1.2,17.507,8.993,17.45c0,0,.685.062.815-1.038-7.04-.571-1.412-14.88-8.5-17.43Z" transform="translate(-130.816 -63.83)" fill="#0f227a"/>
          </g>
          <g id="Group_44" data-name="Group 44" transform="translate(56.519 45.038)" opacity="0.3">
            <path id="Path_44" data-name="Path 44" d="M135.875,128.891a2.3,2.3,0,0,0-.192-1.454c-.862-1.786-2.887-6.521-1.106-8.437-.109.026-.218.062-.337.1-3.468,1.085-.945,7.035.047,9.086a2.34,2.34,0,0,1,.192,1.454c-.337,1.76-.872,5.8,1.885,3.4-1.127-.036-.748-2.773-.488-4.138Z" transform="translate(-132.469 -119)" fill="#0f227a"/>
          </g>
          <g id="Group_45" data-name="Group 45" transform="translate(77.716 49.509)" opacity="0.3">
            <path id="Path_45" data-name="Path 45" d="M175.278,128.135a1.414,1.414,0,0,1,.187-.363,1.372,1.372,0,0,0-1.475.94c-1.251,3.66.109,9.418.135,9.538.363-.639.7-1.288,1.018-1.952C174.811,134.345,174.4,130.721,175.278,128.135Z" transform="translate(-173.375 -127.684)" fill="#0f227a"/>
            <path id="Path_46" data-name="Path 46" d="M174.009,138.394l-.047-.2c-.057-.239-1.381-5.924-.135-9.579a1.448,1.448,0,0,1,1.563-.992l.135.016-.078.114a1.343,1.343,0,0,0-.177.343h0c-.877,2.57-.462,6.189-.13,8.12v.047c-.332.68-.675,1.34-1.028,1.957l-.1.182Zm.919-10.587a1.276,1.276,0,0,0-.945.857c-1.121,3.271-.145,8.2.088,9.283.312-.556.613-1.137.9-1.739-.327-1.952-.742-5.587.145-8.177h0a1.723,1.723,0,0,1,.119-.265,1.585,1.585,0,0,0-.312.031Z" transform="translate(-173.294 -127.611)" fill="#0f227a"/>
          </g>
          <g id="Group_49" data-name="Group 49" transform="translate(47.574 16.193)">
            <g id="Group_46" data-name="Group 46" transform="translate(7.392 29.769)" opacity="0.3">
              <path id="Path_47" data-name="Path 47" d="M131.441,130.188a2.339,2.339,0,0,1,.192,1.454c-.348,1.828-.914,6.111,2.212,3.094-1.417.358-1.007-2.653-.727-4.112a2.3,2.3,0,0,0-.192-1.454c-.815-1.693-2.679-6.043-1.345-8.12-.057.016-.119.036-.182.052-3.468,1.085-.945,7.035.047,9.086Z" transform="translate(-129.55 -120.91)" fill="#0f227a"/>
              <path id="Path_48" data-name="Path 48" d="M132.277,135.707a.726.726,0,0,1-.53-.057c-.836-.452-.524-2.8-.265-4.159a2.243,2.243,0,0,0-.182-1.4h0c-.784-1.62-2.5-5.628-1.542-7.835a2.366,2.366,0,0,1,1.542-1.36c.062-.021.125-.036.182-.052l.208-.062-.119.182c-1.3,2.03.509,6.3,1.35,8.042a2.373,2.373,0,0,1,.2,1.5c-.395,2.061-.363,3.489.078,3.9a.559.559,0,0,0,.55.109l.3-.073-.223.213a3.722,3.722,0,0,1-1.547,1.044Zm-.836-5.685a2.373,2.373,0,0,1,.2,1.5c-.426,2.238-.358,3.692.182,3.982.348.187.935-.088,1.708-.794a.628.628,0,0,1-.447-.182c-.665-.628-.363-2.809-.125-4.055a2.244,2.244,0,0,0-.182-1.4c-.831-1.719-2.591-5.857-1.449-8.016a2.222,2.222,0,0,0-1.423,1.267c-.929,2.149.768,6.1,1.537,7.7Z" transform="translate(-129.477 -120.78)" fill="#0f227a"/>
            </g>
            <g id="Group_47" data-name="Group 47" opacity="0.3">
              <path id="Path_49" data-name="Path 49" d="M122.076,64.735h0c-.026.119-.981,4.9,4.465,6.355,5.519,1.475.27,7.092,7.518,9.7s1.2,17.507,8.993,17.45c0,0,.691.062.82-1.054-6.781-.784-1.3-14.885-8.333-17.414-7.253-2.606-2-8.224-7.518-9.7-5.452-1.459-4.491-6.236-4.465-6.355h0a29.092,29.092,0,0,0-8,.374,3.407,3.407,0,0,1,.519.716,28.935,28.935,0,0,1,5.992-.073Z" transform="translate(-115.394 -63.517)" fill="#0f227a"/>
              <path id="Path_50" data-name="Path 50" d="M143.054,98.233a.6.6,0,0,1-.161.016c-4.065.031-4.424-3.93-4.8-8.12-.358-3.972-.732-8.079-4.211-9.335-3.91-1.407-4.231-3.692-4.517-5.711-.249-1.776-.467-3.312-3-3.987-5.161-1.381-4.662-5.664-4.543-6.36a28.93,28.93,0,0,0-5.883.083h-.052l-.026-.042a3.176,3.176,0,0,0-.509-.7l-.114-.109.156-.031a29.447,29.447,0,0,1,8.016-.379h.057l.016.1c-.042.2-.945,4.823,4.408,6.256,2.632.706,2.866,2.368,3.115,4.122.28,1.973.6,4.211,4.408,5.581,3.577,1.288,3.956,5.446,4.32,9.47.353,3.884.685,7.554,4,7.939l.083.01-.01.083c-.1.841-.514,1.054-.748,1.106ZM115.972,64.646a29.267,29.267,0,0,1,5.955-.067h.057l.016.1c-.042.2-.945,4.823,4.408,6.256,2.632.706,2.866,2.368,3.115,4.122.28,1.973.6,4.211,4.408,5.581,3.577,1.288,3.956,5.446,4.32,9.47.374,4.117.722,8,4.647,7.97.031,0,.592.036.727-.9-3.37-.452-3.7-4.154-4.06-8.074-.358-3.972-.732-8.079-4.211-9.33-3.91-1.407-4.231-3.692-4.517-5.711-.249-1.776-.467-3.312-3-3.987-5.161-1.381-4.662-5.664-4.543-6.36a29.06,29.06,0,0,0-7.736.353,3.759,3.759,0,0,1,.4.576Z" transform="translate(-115.24 -63.444)" fill="#0f227a"/>
            </g>
            <g id="Group_48" data-name="Group 48" transform="translate(25.051 34.341)" opacity="0.3">
              <path id="Path_51" data-name="Path 51" d="M169.3,129.733a1.375,1.375,0,0,0-1.459.94c-1.251,3.66.109,9.418.135,9.538h0a29.363,29.363,0,0,1-4.211,5.644c.1.047.213.093.322.14a29.275,29.275,0,0,0,5.369-6.8h0c-.026-.114-1.366-5.8-.161-9.46Z" transform="translate(-163.625 -129.653)" fill="#0f227a"/>
              <path id="Path_52" data-name="Path 52" d="M163.973,146.026l-.052-.021c-.109-.052-.213-.1-.322-.14l-.109-.047.083-.083a29.628,29.628,0,0,0,4.185-5.6c-.119-.509-1.345-5.992-.125-9.548a1.456,1.456,0,0,1,1.542-1l.1.01-.031.1c-1.194,3.619.1,9.179.161,9.413v.031l-.01.031A29.565,29.565,0,0,1,164.014,146l-.042.036Zm-.2-.27c.052.026.109.047.166.073a29.3,29.3,0,0,0,5.3-6.718c-.114-.5-1.3-5.8-.182-9.372a1.287,1.287,0,0,0-1.267.893c-1.236,3.614.078,9.252.135,9.491v.031l-.01.031a29.4,29.4,0,0,1-4.143,5.571Z" transform="translate(-163.49 -129.586)" fill="#0f227a"/>
            </g>
          </g>
          <g id="Group_50" data-name="Group 50" transform="translate(25.544 16.302)" opacity="0.6">
            <path id="Path_53" data-name="Path 53" d="M127.04,104.829A29.226,29.226,0,1,0,72.81,83.153a29.228,29.228,0,0,1,37.3-15.275,1.4,1.4,0,0,1,.841.976c.337,1.407,1.952,3.453,4.289,5.244,2.414,1.859,4.9,2.908,6.324,2.788a1.384,1.384,0,0,1,1.2.535,29.25,29.25,0,0,1,4.283,27.4Z" transform="translate(-72.81 -63.654)" fill="#fff"/>
          </g>
          <g id="Group_53" data-name="Group 53" transform="translate(0 2.271)">
            <path id="Path_54" data-name="Path 54" d="M60.005,54.228a18.139,18.139,0,0,0-3.245.607,8.887,8.887,0,0,1-1.09-3.3l1.007-.893a2.674,2.674,0,0,1,1.018,2.124,2.443,2.443,0,0,1,2.316,1.459Z" transform="translate(-39.025 -43.366)" fill="#fff"/>
            <g id="Group_52" data-name="Group 52">
              <g id="Group_51" data-name="Group 51" transform="translate(0 5.047)">
                <path id="Path_55" data-name="Path 55" d="M54.251,52.773a13.743,13.743,0,0,0-2.586.992,9.243,9.243,0,0,0-1.215-1.905,18.549,18.549,0,0,1,2.529-5.509,16.866,16.866,0,0,0,.182,3.12A8.918,8.918,0,0,0,54.251,52.773Z" transform="translate(-36.515 -46.35)" fill="#fff"/>
                <path id="Path_56" data-name="Path 56" d="M66.019,90.989c1.308.753,1.641,3.52.742,6.692a15.968,15.968,0,0,1-10.555,10.945,17.947,17.947,0,0,1-4.678.774c-.5.021-1.012.021-1.537,0a14.642,14.642,0,0,1-5.1-1.08h0c-.254-.109-.5-.218-.748-.337a17.187,17.187,0,0,1-6.578-5.9,35.48,35.48,0,0,1-4.777-11.106,50.442,50.442,0,0,1-1.2-6.329,2.093,2.093,0,0,0-.571-1.21c-1.77-1.864-7.679-8.754-7.393-17.575a32.314,32.314,0,0,1,5.571-.514c0-.026.021-.363.073-.893a26.891,26.891,0,0,1,1.173-6.189,5.5,5.5,0,0,1,1.9,1.687L35.09,52.89h0a9.17,9.17,0,0,1,2.456,2.118,9.031,9.031,0,0,1,1.215,1.905,8.442,8.442,0,0,1,.872-.4c.208-.088.457-.182.737-.28s.618-.208.976-.312a18.139,18.139,0,0,1,3.245-.607,18.707,18.707,0,0,1,2.83-.052,18.372,18.372,0,0,1,3.2.467,20.21,20.21,0,0,1,5.161,2.015c.483.265.971.561,1.459.877a4.9,4.9,0,0,1,1.833.2,12.3,12.3,0,0,1-.119,1.651,3.945,3.945,0,0,1,1.267-.28,2.873,2.873,0,0,0,.1,1.573,5.145,5.145,0,0,0,.291.711,1.819,1.819,0,0,0,.374.545,29.327,29.327,0,0,0-13.452,22.1c-.062.675-.1,1.35-.109,2.035l2.721-2.492a1.275,1.275,0,0,0,.332-.509c.379-1.111,1.854-4.964,3.582-3.925a.525.525,0,0,0,.607-.057,2.788,2.788,0,0,1,4.076.166l.192.192c2.362,2.492-.14,8.743-10.306,15.529.177.6.374,1.189.587,1.77a7.582,7.582,0,0,1,5.68-2.627,8.522,8.522,0,0,1,4.086.649h0a12.434,12.434,0,0,1,1.059-1.937c1.1-1.656,3.022-3.686,5.592-3.063a1.422,1.422,0,0,1,.389.156Z" transform="translate(-23.611 -49.494)" fill="#fff"/>
                <path id="Path_57" data-name="Path 57" d="M104.092,64.037a2.531,2.531,0,0,1-1.776,2.653c-2.653,1.116-4.019.54-4.61.073a.716.716,0,0,0-.857-.01c-1.007.716-1.661.4-2.03.036a1.947,1.947,0,0,1-.374-.545,3.317,3.317,0,0,1-.389-2.284c.493-2.04,3.577-2.856,5.893-3.183A3.653,3.653,0,0,1,103.859,63,3.4,3.4,0,0,1,104.092,64.037Z" transform="translate(-57.448 -53.269)" fill="#fff"/>
                <path id="Path_58" data-name="Path 58" d="M95.42,164.022h0a2.4,2.4,0,0,1-.462.571,29.2,29.2,0,0,1-4.206,3.172,19.676,19.676,0,0,1-6.069,2.554,16.135,16.135,0,0,1-1.838.3,15.374,15.374,0,0,1-4.055-.119C70,169.068,64.969,160.377,64.756,160a2.7,2.7,0,0,1-.166-.353,14.525,14.525,0,0,0,5.1,1.08c.524.021,1.038.016,1.537,0,1.854,2.056,4.73,4.481,8.354,5.062.3.047.592.083.888.1a11.023,11.023,0,0,0,3.536-.332,19.125,19.125,0,0,0,7.767-4.527,2.384,2.384,0,0,1,3.645,2.985Z" transform="translate(-43.314 -100.825)" fill="#fff"/>
              </g>
              <path id="Path_59" data-name="Path 59" d="M168.265,43.665l-4.605,12.253L145.02,48.909l4.538-12.279h0Z" transform="translate(-81.984 -36.63)" fill="#fff"/>
              <path id="Path_60" data-name="Path 60" d="M167.48,51.785a.355.355,0,0,0-.41-.14l-2.819.992-.857-.436.6-1.256a.351.351,0,0,0-.633-.3l-.6,1.256-.628-.3.9-1.89a.351.351,0,1,0-.633-.3l-.9,1.89-.628-.3,1.2-2.518a.351.351,0,1,0-.633-.3l-1.2,2.518-.8-.384c.852-1.833,1.158-2.954.888-3.328-.151-.213-.5-.41-1.952-.28-.68.062-4.216.53-4.59,1.319s1.464,3.827,1.843,4.392c.815,1.22,1.189,1.371,1.449,1.355a.355.355,0,0,0,.119-.026c.457-.161,1.111-1.106,1.942-2.8l.8.384-1.2,2.518a.351.351,0,0,0,.633.3l1.2-2.518.628.3-.9,1.89a.351.351,0,1,0,.633.3l.9-1.89.628.3-.6,1.262a.351.351,0,1,0,.633.3l.6-1.262.826.421,1,2.85a.357.357,0,0,0,.369.234.413.413,0,0,0,.078-.016.337.337,0,0,0,.228-.286,6.726,6.726,0,0,1,1.838-3.811.345.345,0,0,0,.042-.431Zm-9.309-2.227a1.051,1.051,0,0,1-1.4.493,1.047,1.047,0,1,1,1.4-.493Z" transform="translate(-86.174 -41.452)" fill="#ff9100"/>
            </g>
          </g>
          <g id="Group_54" data-name="Group 54" transform="translate(9.174 13.045)">
            <path id="Path_61" data-name="Path 61" d="M69.8,59.893c-6.132,10.14-16.2,2.8-16.2,2.8a8.218,8.218,0,0,0-.81-3.634,13.553,13.553,0,0,1,2.586-.992,18.14,18.14,0,0,1,3.245-.607,18.708,18.708,0,0,1,2.83-.052,18.371,18.371,0,0,1,3.2.467,20.21,20.21,0,0,1,5.161,2.014Z" transform="translate(-46.814 -57.381)" fill="#ff9100"/>
            <path id="Path_62" data-name="Path 62" d="M110.128,164.743h0a2.4,2.4,0,0,1-.462.571,29.194,29.194,0,0,1-4.206,3.172,19.675,19.675,0,0,1-6.069,2.554,16.138,16.138,0,0,1-1.838.3,7.174,7.174,0,0,1-2.373-4.725,11.022,11.022,0,0,0,3.536-.332,19.125,19.125,0,0,0,7.767-4.527,2.384,2.384,0,0,1,3.645,2.985Z" transform="translate(-67.195 -107.273)" fill="#ff9100"/>
            <path id="Path_63" data-name="Path 63" d="M53.642,135.316a11.675,11.675,0,0,1-1.007,7.892c-6.625-3.2-9.839-11.126-11.355-17A11.711,11.711,0,0,1,53.642,135.316Z" transform="translate(-41.28 -90.453)" fill="#ff9100"/>
          </g>
          <path id="Path_64" data-name="Path 64" d="M62.653,52.108a18.721,18.721,0,0,0-2.83.052A2.443,2.443,0,0,0,57.508,50.7a2.674,2.674,0,0,0-1.018-2.124l-1.007.893a17.422,17.422,0,0,1-.182-3.12,20.364,20.364,0,0,1,7.347,5.758Z" transform="translate(-38.843 -39.032)" fill="#ff789f"/>
          <path id="Path_65" data-name="Path 65" d="M32.571,86.391c.4-4.226-2.84-2.944-2.84-2.944a5.174,5.174,0,0,0-1.978-3.406l-.945,3.136L23.63,77.383a32.314,32.314,0,0,1,5.571-.514l2.57.073a17.421,17.421,0,0,1,.8,9.444Z" transform="translate(-23.62 -53.705)" fill="#ff789f"/>
          <g id="Group_68" data-name="Group 68" transform="translate(0.01 7.318)">
            <g id="Group_55" data-name="Group 55" transform="translate(36.529 9.714)" opacity="0.3">
              <path id="Path_66" data-name="Path 66" d="M102.856,66.908c-2.653,1.116-4.019.54-4.61.073a.716.716,0,0,0-.857-.01c-1.007.716-1.661.4-2.03.036a1.947,1.947,0,0,1-.374-.545,4.205,4.205,0,0,1-.441-1.4,2.406,2.406,0,0,0-.488.976,3.317,3.317,0,0,0,.389,2.284,1.82,1.82,0,0,0,.374.545c.369.374,1.023.685,2.03-.036a.709.709,0,0,1,.857.01c.592.467,1.952,1.038,4.61-.073a2.525,2.525,0,0,0,1.776-2.653.213.213,0,0,0-.005-.057,3.265,3.265,0,0,1-1.23.857Z" transform="translate(-93.987 -65.06)" fill="#0f227a"/>
            </g>
            <g id="Group_56" data-name="Group 56" transform="translate(14.957 32.04)" opacity="0.3">
              <path id="Path_67" data-name="Path 67" d="M61.39,111.632c-.062.675-.1,1.35-.109,2.035,0,0-2.767,2.643-3.266,3.006a2.45,2.45,0,0,1-.571.286.33.33,0,0,1-.395-.472,9.4,9.4,0,0,0,.691-1.781.585.585,0,0,0-.566-.742c-3.7.01-3.972-1.843-3.941-2.549a.583.583,0,0,0-.2-.457c-1.594-1.475.5-2.9.5-2.9-1.584,1.843,1.693,2.362,1.693,2.362a1.016,1.016,0,0,0-.208,1.023c1.09,1.49,6.365.192,6.365.192h0Z" transform="translate(-52.438 -108.06)" fill="#0f227a"/>
            </g>
            <g id="Group_57" data-name="Group 57" transform="translate(22.27 30.83)" opacity="0.3">
              <path id="Path_68" data-name="Path 68" d="M69.263,121.446c.177.6.374,1.189.587,1.77a8.911,8.911,0,0,0-1.277,2.357.391.391,0,0,1-.748-.067,4.658,4.658,0,0,1-.042-1.552,1.349,1.349,0,0,0-.826-1.4c-.083-.036-.161-.073-.228-.109a.389.389,0,0,1-.052-.654c13.234-10.452,12.726-13.883,12.7-16.059l.192.192c2.362,2.492-.14,8.743-10.306,15.529Z" transform="translate(-66.523 -105.73)" fill="#0f227a"/>
            </g>
            <g id="Group_58" data-name="Group 58" transform="translate(22.17 12.269)" opacity="0.3">
              <path id="Path_69" data-name="Path 69" d="M81.522,71.231a29.327,29.327,0,0,0-13.452,22.1l-1.739.337S66.886,77.69,80.852,69.98a5.145,5.145,0,0,0,.291.711,1.819,1.819,0,0,0,.374.545Z" transform="translate(-66.33 -69.98)" fill="#0f227a"/>
            </g>
            <g id="Group_59" data-name="Group 59" transform="translate(0 16.194)" opacity="0.3">
              <path id="Path_70" data-name="Path 70" d="M32.872,82.872a12.24,12.24,0,0,1-.27,1.911c.135-2.471-1.028-3-1.781-3.084a1,1,0,0,1-.8-.633,6.689,6.689,0,0,0-1.62-2.082.5.5,0,0,0-.846.2l-.716,2.388L24.632,77.54c-.618.093-1,.166-1,.166L26.808,83.5l.945-3.136a5.152,5.152,0,0,1,1.978,3.406s3.24-1.282,2.84,2.944a14.714,14.714,0,0,0,.3-3.842Z" transform="translate(-23.63 -77.54)" fill="#0f227a"/>
            </g>
            <g id="Group_60" data-name="Group 60" transform="translate(13.941 41.5)" opacity="0.3">
              <path id="Path_71" data-name="Path 71" d="M79.68,132.967a15.968,15.968,0,0,1-10.555,10.945,17.948,17.948,0,0,1-4.678.774c-.5.021-1.012.021-1.537,0a14.642,14.642,0,0,1-5.1-1.08h0c-.254-.109-.5-.218-.748-.337a17.187,17.187,0,0,1-6.578-5.9c3.037,2.383,7.409,4.1,13.634,3.582,13.915-1.158,14.911-11.116,14.823-14.673,1.308.753,1.641,3.52.742,6.692Z" transform="translate(-50.48 -126.28)" fill="#0f227a"/>
            </g>
            <g id="Group_61" data-name="Group 61" transform="translate(3.172 19.018)" opacity="0.3">
              <path id="Path_72" data-name="Path 72" d="M33.779,91.723,31.09,85.96a2.444,2.444,0,0,1-.213-.784l-.192-2.2-.945,3.136a62.747,62.747,0,0,0,4.034,5.6Z" transform="translate(-29.74 -82.98)" fill="#0f227a"/>
            </g>
            <g id="Group_62" data-name="Group 62" transform="translate(35.358 44.407)" opacity="0.3">
              <path id="Path_73" data-name="Path 73" d="M94.824,137.145a6.094,6.094,0,0,0-3.094-3.328,12.707,12.707,0,0,1,1.059-1.937C95.557,134.891,94.824,137.145,94.824,137.145Z" transform="translate(-91.73 -131.88)" fill="#0f227a"/>
            </g>
            <g id="Group_63" data-name="Group 63" transform="translate(21.266 58.82)" opacity="0.3">
              <path id="Path_74" data-name="Path 74" d="M95.145,161.213a2.388,2.388,0,0,0-3.37-.187,19.092,19.092,0,0,1-7.767,4.527,10.852,10.852,0,0,1-3.536.332,8.62,8.62,0,0,1-.888-.1c-3.619-.582-6.5-3.006-8.354-5.062-.5.021-1.012.021-1.537,0a14.641,14.641,0,0,1-5.1-1.08,2.42,2.42,0,0,0,.166.353,21.254,21.254,0,0,0,1.485,2.191,14.988,14.988,0,0,0,3.053.415h.016a3.848,3.848,0,0,1,2.539,1.054,14.018,14.018,0,0,0,7.336,4.008c.3.047.592.083.888.1a11.022,11.022,0,0,0,3.536-.332,19.125,19.125,0,0,0,7.767-4.527A2.382,2.382,0,0,1,95.3,164.2c.042-.062.083-.119.119-.182h0A2.386,2.386,0,0,0,95.145,161.213Z" transform="translate(-64.59 -159.64)" fill="#0f227a"/>
            </g>
            <g id="Group_64" data-name="Group 64" transform="translate(14.693)" opacity="0.3">
              <path id="Path_75" data-name="Path 75" d="M53.872,49.47a17.422,17.422,0,0,1-.182-3.12,16.438,16.438,0,0,0-1.381,2.4c.016.125.031.254.052.384a11.509,11.509,0,0,0,.462,1.947,1.492,1.492,0,0,1-.883,1.864h-.01c.156.265.306.53.447.82a13.553,13.553,0,0,1,2.586-.992A8.887,8.887,0,0,1,53.872,49.47Z" transform="translate(-51.93 -46.35)" fill="#0f227a"/>
            </g>
            <g id="Group_65" data-name="Group 65" transform="translate(16.635 2.544)" opacity="0.3">
              <path id="Path_76" data-name="Path 76" d="M56.843,53.15a10.112,10.112,0,0,1-.524-1.9l-.649.576a8.918,8.918,0,0,0,1.09,3.3,18.139,18.139,0,0,1,3.245-.607,2.313,2.313,0,0,0-.576-.831c-.4.067-.794.14-1.153.223a1.249,1.249,0,0,1-1.433-.758Z" transform="translate(-55.67 -51.25)" fill="#0f227a"/>
            </g>
            <g id="Group_66" data-name="Group 66" transform="translate(5.571 14.174)" opacity="0.3">
              <path id="Path_77" data-name="Path 77" d="M37.475,74.382,36.93,75.4l-2.57-.073c0-.026.088-1.158.135-1.682l1.36.706a.99.99,0,0,0,.768.062h0l.514-.343A.235.235,0,0,1,37.475,74.382Z" transform="translate(-34.36 -73.65)" fill="#0f227a"/>
            </g>
            <g id="Group_67" data-name="Group 67" transform="translate(11.48 3.396)" opacity="0.3">
              <path id="Path_78" data-name="Path 78" d="M51.218,61.436h0a7.73,7.73,0,0,0-.208-5.208,12.826,12.826,0,0,0-1.381.566h0c-.031.016-.057.031-.083.042l-.021.01s-.042.021-.057.031h-.01l-.026.021h-.01l-.01.01A9.243,9.243,0,0,0,48.2,55,9.006,9.006,0,0,0,45.74,52.89c.088.125,3.764,5.457,3.276,10.7a.469.469,0,0,0,.841.332A10.859,10.859,0,0,0,50.74,62.5a5.577,5.577,0,0,0,.483-1.054h0Z" transform="translate(-45.74 -52.89)" fill="#0f227a"/>
            </g>
          </g>
          <g id="Group_69" data-name="Group 69" transform="translate(15.145 13.056)" opacity="0.6">
            <path id="Path_79" data-name="Path 79" d="M55.371,59.711a18.139,18.139,0,0,1,3.245-.607,18.706,18.706,0,0,1,2.83-.052,18.372,18.372,0,0,1,3.2.467,19.986,19.986,0,0,1,4.351,1.594c.275-.369.545-.768.8-1.2A20.137,20.137,0,0,0,64.639,57.9a18.371,18.371,0,0,0-3.2-.467,18.721,18.721,0,0,0-2.83.052,18.139,18.139,0,0,0-3.245.607,13.744,13.744,0,0,0-2.586.992,8.551,8.551,0,0,1,.519,1.371,15.7,15.7,0,0,1,2.066-.742Z" transform="translate(-52.78 -57.401)" fill="#fff"/>
          </g>
          <path id="Path_80" data-name="Path 80" d="M145.61,33.467a1.529,1.529,0,0,1-.062.872l-.067.187-4.538,12.279L139.8,49.89l-.265.722a1.547,1.547,0,0,1-2.959-.2,1.529,1.529,0,0,1,.062-.872l.161-.431,5.857-15.841a1.543,1.543,0,0,1,2.954.2Z" transform="translate(-77.907 -32.255)" fill="#656982"/>
          <g id="Group_70" data-name="Group 70" transform="translate(59.064 0.018)" opacity="0.6">
            <path id="Path_81" data-name="Path 81" d="M144.987,32.357a1.467,1.467,0,0,0-.327-.067,1.582,1.582,0,0,1,.4.737A1.532,1.532,0,0,1,145,33.9l-.067.187-4.538,12.279-1.142,3.084-.265.722a1.55,1.55,0,0,1-1.615,1,1.562,1.562,0,0,0,.618.395,1.545,1.545,0,0,0,1.937-.929l.265-.722,1.142-3.084,4.538-12.279.067-.187a1.529,1.529,0,0,0,.062-.872,1.562,1.562,0,0,0-1.018-1.132Z" transform="translate(-137.37 -32.29)" fill="#fff"/>
          </g>
          <g id="Group_73" data-name="Group 73" transform="translate(58.638 0.005)">
            <g id="Group_71" data-name="Group 71" opacity="0.3">
              <path id="Path_82" data-name="Path 82" d="M137.853,50.585a1.529,1.529,0,0,1,.062-.872l.161-.431,5.857-15.841a1.534,1.534,0,0,1,1-.94,1.457,1.457,0,0,0-.327-.156,1.538,1.538,0,0,0-1.937.929l-5.857,15.841-.161.431a1.529,1.529,0,0,0-.062.872,1.546,1.546,0,0,0,1.963,1.142,1.542,1.542,0,0,1-.691-.971Z" transform="translate(-136.55 -32.265)" fill="#0f227a"/>
            </g>
            <g id="Group_72" data-name="Group 72" transform="translate(4.398 2.266)" opacity="0.3">
              <path id="Path_83" data-name="Path 83" d="M150.648,38.442l.457-1.231-1.547-.582h0L145.02,48.909l18.639,7,.665-1.776-7.85-2.949A9.938,9.938,0,0,1,150.648,38.442Z" transform="translate(-145.02 -36.63)" fill="#0f227a"/>
            </g>
          </g>
        </g>
        <g id="Group_77" data-name="Group 77" transform="translate(1.294 1.316)">
          <path id="Path_84" data-name="Path 84" d="M73.043,76.855a3.457,3.457,0,0,0-.182-1.225.121.121,0,0,0-.234.01h0a7.9,7.9,0,0,1-.332,1.179,2.241,2.241,0,0,1-.561.867,1.755,1.755,0,0,1-.82.41.409.409,0,0,0-.067.016.322.322,0,0,1-.363-.218,2.357,2.357,0,0,0-.478-.851.434.434,0,0,0-.68.062l-1.464,2.222a.432.432,0,0,0,.228.654,1.859,1.859,0,0,0,1.371-.13.317.317,0,0,1,.452.223,1.5,1.5,0,0,1,.021.151c.016.109.01.223.016.337-.016.119-.01.234-.031.353a2.9,2.9,0,0,1-.067.358,2.81,2.81,0,0,1-.1.358,3.761,3.761,0,0,1-1.22,1.828,3.453,3.453,0,0,1-.654.426h-.016a.148.148,0,0,0-.062.1.11.11,0,0,0,.1.114,2.166,2.166,0,0,0,.893-.161,2.773,2.773,0,0,0,.789-.472l.031-.031a5.765,5.765,0,0,0,3.011.421,18.92,18.92,0,0,1,3.287-4.569,10.5,10.5,0,0,0-2.876-2.456Z" transform="translate(-44.26 -52.488)" fill="#0f227a"/>
          <path id="Path_85" data-name="Path 85" d="M76.891,86.211s-1.365-2.492,1.828-4.351a2.585,2.585,0,0,1,.618.893,22.668,22.668,0,0,0-2.445,3.453Z" transform="translate(-48.497 -55.525)" fill="#ff789f"/>
          <path id="Path_86" data-name="Path 86" d="M127.018,122.734a29.605,29.605,0,0,1-12.248.166l.223-1.132A28.693,28.693,0,0,0,148.5,87.361a28.8,28.8,0,0,0-19.34-21.1l.348-1.1a29.836,29.836,0,0,1-2.487,57.564Z" transform="translate(-66.848 -47.5)" fill="#0f227a"/>
          <path id="Path_87" data-name="Path 87" d="M125.242,64.214a28.506,28.506,0,0,0-11.962.125l-.27.062-.26-1.121.28-.062a29.646,29.646,0,0,1,12.44-.13Z" transform="translate(-65.877 -46.212)" fill="#0f227a"/>
          <path id="Path_88" data-name="Path 88" d="M69.513,96.086l-1.153-.021a29.906,29.906,0,0,1,13.826-24.6l.618.971a28.6,28.6,0,0,0-13.3,23.655Z" transform="translate(-44.535 -50.524)" fill="#0f227a"/>
          <path id="Path_89" data-name="Path 89" d="M71.337,137.824c-.218-.592-.415-1.2-.6-1.807l1.106-.327c.171.581.369,1.168.576,1.734l-1.08.395Z" transform="translate(-45.679 -81.406)" fill="#0f227a"/>
          <path id="Path_90" data-name="Path 90" d="M93.875,165.982a29.862,29.862,0,0,1-8.255-5.716l.8-.826a28.734,28.734,0,0,0,7.939,5.493l-.488,1.044Z" transform="translate(-52.833 -92.825)" fill="#0f227a"/>
          <path id="Path_91" data-name="Path 91" d="M62.991,114.139c1.147-1.334,2.362-2.606,3.588-3.858.613-.628,1.272-1.2,1.926-1.786l.228-.208a.663.663,0,0,0,.119-.151.461.461,0,0,0,.042-.088L68.91,108l.026-.078.114-.317c.156-.421.332-.841.524-1.251a11,11,0,0,1,.659-1.21,4.881,4.881,0,0,1,.955-1.116,2.176,2.176,0,0,1,.753-.4,1.563,1.563,0,0,1,.95.031L73,103.7l.1.052.1.052.026.016h.01v-.01l.016-.016.036-.031c.093-.083.192-.156.291-.228a3.514,3.514,0,0,1,1.391-.613,2.957,2.957,0,0,1,1.563.119,4.187,4.187,0,0,1,1.293.768l.265.249.13.125.13.145.125.151.109.161.109.161.093.171a3.9,3.9,0,0,1,.415,1.464,5.249,5.249,0,0,1-.083,1.459,8.045,8.045,0,0,1-.379,1.366,11.574,11.574,0,0,1-.576,1.262,19.178,19.178,0,0,1-3.245,4.32,29.085,29.085,0,0,1-8.619,6.147.089.089,0,0,1-.119-.047.1.1,0,0,1,.026-.109c1.34-1.147,2.705-2.233,4.029-3.349q1-.833,1.957-1.693c.644-.576,1.251-1.184,1.848-1.8s1.147-1.272,1.672-1.937a15.884,15.884,0,0,0,1.4-2.1,8.545,8.545,0,0,0,.877-2.274,3.408,3.408,0,0,0-.177-2.207c-.021-.042-.036-.083-.057-.119l-.073-.109-.073-.114-.083-.1-.083-.1-.1-.1-.208-.208a3.166,3.166,0,0,0-.94-.582,1.9,1.9,0,0,0-1.018-.093,2.494,2.494,0,0,0-.992.426,2.533,2.533,0,0,0-.223.171l-.073.057a1.245,1.245,0,0,1-.135.093,1.029,1.029,0,0,1-.3.114,1.006,1.006,0,0,1-.639-.062.317.317,0,0,1-.073-.036l-.036-.021H72.7l-.047-.031-.047-.026-.047-.016a.552.552,0,0,0-.343-.01,1.061,1.061,0,0,0-.389.218,3.741,3.741,0,0,0-.737.872,10.449,10.449,0,0,0-.6,1.09c-.177.379-.343.774-.488,1.173l-.109.3-.026.073a.869.869,0,0,1-.042.1,1.551,1.551,0,0,1-.1.208,1.773,1.773,0,0,1-.28.369l-.254.239c-.639.6-1.267,1.21-1.947,1.765-1.355,1.116-2.721,2.212-4.154,3.24a.081.081,0,0,1-.109-.016.086.086,0,0,1,0-.1Z" transform="translate(-41.938 -65.624)" fill="#0f227a"/>
          <path id="Path_92" data-name="Path 92" d="M70.44,138.778a4.911,4.911,0,0,1,.654-2.258,5.975,5.975,0,0,1,1.573-1.833,7.415,7.415,0,0,1,2.144-1.163c.192-.062.384-.13.582-.182l.3-.078c.1-.026.2-.042.3-.062.2-.042.395-.073.6-.1s.4-.047.6-.062a10.053,10.053,0,0,1,2.4.093,7.52,7.52,0,0,1,2.316.774,5.173,5.173,0,0,1,2.767,3.769.08.08,0,0,1-.067.083.079.079,0,0,1-.073-.036v-.01a6.718,6.718,0,0,0-3.141-2.757,7.047,7.047,0,0,0-1.994-.514,10.987,10.987,0,0,0-2.108-.021,10.075,10.075,0,0,0-2.061.358,7.719,7.719,0,0,0-.971.353,6.123,6.123,0,0,0-.909.488,8.319,8.319,0,0,0-2.84,3.172h0s-.026.021-.036.016a.028.028,0,0,1-.016-.026Z" transform="translate(-45.535 -80.117)" fill="#0f227a"/>
          <path id="Path_93" data-name="Path 93" d="M57.9,106.156c.109-.254.213-.472.327-.706s.234-.452.363-.67a11.989,11.989,0,0,1,.836-1.277,8.164,8.164,0,0,1,2.269-2.149,5.021,5.021,0,0,1,1.532-.618A4.446,4.446,0,0,1,64.9,100.7l.208.042.1.021c.031.005.078.021.119.031a2.236,2.236,0,0,1,.472.2,2.356,2.356,0,0,1,.716.654,4.11,4.11,0,0,1,.67,1.573,9.265,9.265,0,0,1,.073,3.115,15.028,15.028,0,0,1-.706,2.954,17.342,17.342,0,0,1-2.928,5.27,15.956,15.956,0,0,1-4.621,3.894,16.869,16.869,0,0,1-5.716,1.937,19.42,19.42,0,0,1-3,.228,17.372,17.372,0,0,1-3.017-.234,14.876,14.876,0,0,1-5.644-2.212,16.35,16.35,0,0,1-2.378-1.885,19.6,19.6,0,0,1-2.02-2.238,24.2,24.2,0,0,1-1.687-2.477q-.763-1.285-1.4-2.632a39.872,39.872,0,0,1-2.077-5.545,50.911,50.911,0,0,1-1.329-5.748c-.083-.483-.161-.971-.228-1.459l-.093-.732-.021-.182a.926.926,0,0,0-.021-.135,1.426,1.426,0,0,0-.067-.244,1.452,1.452,0,0,0-.254-.431l-.483-.524c-.332-.369-.654-.748-.966-1.132a30.878,30.878,0,0,1-3.276-4.953,25.486,25.486,0,0,1-2.175-5.545,21.2,21.2,0,0,1-.675-5.94h0a.59.59,0,0,1,.483-.566c.8-.14,1.573-.249,2.368-.332s1.584-.145,2.383-.166a18.006,18.006,0,0,1,2.419.083c.2.016.41.052.613.083l.156.026h.036s.021.01.016.01h-.062a.226.226,0,0,0-.182.125c-.016.031.005,0,.021-.021s.026-.042.042-.062l.088-.119a2.71,2.71,0,0,1,.2-.223,1.853,1.853,0,0,1,.54-.379.186.186,0,0,1,.249.093c.005.016.01.031.016.052a2,2,0,0,1-.005.659,2.726,2.726,0,0,1-.067.3c-.01.047-.031.093-.047.14-.01.026-.016.047-.026.068a.722.722,0,0,1-.052.109.865.865,0,0,1-.665.421,1.252,1.252,0,0,1-.2,0l-.1-.016-.135-.021c-.182-.026-.363-.062-.55-.073a16.4,16.4,0,0,0-2.264-.062c-.763.026-1.526.088-2.29.171s-1.532.2-2.274.332l.483-.566a19.756,19.756,0,0,0,.665,5.592,24.486,24.486,0,0,0,2.1,5.265A29.414,29.414,0,0,0,29.6,92.029c.3.369.613.727.929,1.08l.5.545a2.742,2.742,0,0,1,.488.81,2.4,2.4,0,0,1,.13.457c.016.073.026.166.036.228l.021.177.1.711c.067.472.145.945.228,1.417a48.886,48.886,0,0,0,1.324,5.592,37.913,37.913,0,0,0,2.03,5.348,27.63,27.63,0,0,0,1.334,2.513,22,22,0,0,0,1.589,2.336,18.394,18.394,0,0,0,1.88,2.087,14.5,14.5,0,0,0,2.181,1.729,13.563,13.563,0,0,0,5.125,2.014,15.484,15.484,0,0,0,2.783.213,17.946,17.946,0,0,0,2.8-.213,15.5,15.5,0,0,0,5.259-1.776c.4-.223.8-.472,1.184-.732s.753-.545,1.106-.846a15.034,15.034,0,0,0,1.963-1.978,16.031,16.031,0,0,0,2.736-4.844A14,14,0,0,0,66,106.2a8.118,8.118,0,0,0-.031-2.679,2.943,2.943,0,0,0-.441-1.1,1.127,1.127,0,0,0-.343-.327.7.7,0,0,0-.192-.083.422.422,0,0,0-.057-.016l-.078-.016-.151-.031a3.188,3.188,0,0,0-1.215.016,3.876,3.876,0,0,0-1.163.457,7.014,7.014,0,0,0-1.947,1.817A10.381,10.381,0,0,0,59.6,105.4c-.119.2-.228.4-.337.607s-.213.421-.3.613v.016a.589.589,0,0,1-.763.3.574.574,0,0,1-.3-.753Z" transform="translate(-22.471 -52.137)" fill="#0f227a"/>
          <path id="Path_94" data-name="Path 94" d="M33.23,64.771c.042-.618.1-1.215.166-1.822s.145-1.21.244-1.812.2-1.2.343-1.812a13.965,13.965,0,0,1,.53-1.807h0a.571.571,0,0,1,.732-.337.317.317,0,0,1,.073.036,6.532,6.532,0,0,1,.6.374c.192.13.374.27.556.421a4.29,4.29,0,0,1,.971,1.121l-1.038.073,2.757-7.066h0a.569.569,0,0,1,.742-.327.7.7,0,0,1,.062.031h0c.151.078.26.135.384.208s.234.145.348.223a6.739,6.739,0,0,1,.654.493,9.034,9.034,0,0,1,1.163,1.153,8.766,8.766,0,0,1,1.625,2.835c.093.26.166.519.239.784.057.265.119.535.151.8s.062.54.078.81c.01.135,0,.27,0,.4s0,.27-.01.4a8.9,8.9,0,0,1-.722,3.068c0,.01-.016.01-.021.01s-.01-.01-.01-.016a16.441,16.441,0,0,0-.031-3.037,9.741,9.741,0,0,0-.737-2.814c-.047-.109-.1-.218-.151-.327s-.1-.218-.166-.322-.109-.213-.171-.317L42.4,55.9a9.735,9.735,0,0,0-.862-1.147,11.078,11.078,0,0,0-1.012-1.023c-.177-.161-.369-.312-.556-.462-.093-.073-.192-.145-.286-.213s-.2-.14-.275-.192h0l.8-.3-2.757,7.066a.579.579,0,0,1-.748.327.552.552,0,0,1-.286-.244V59.7a3.609,3.609,0,0,0-.312-.415,4.812,4.812,0,0,0-.4-.389,5.242,5.242,0,0,0-.467-.353c-.161-.109-.337-.223-.488-.306l.81-.3a13.816,13.816,0,0,0-.483,1.651c-.135.566-.234,1.147-.327,1.734s-.166,1.173-.234,1.76-.125,1.184-.161,1.765h0a.575.575,0,1,1-1.147-.067h0Z" transform="translate(-27.633 -41.058)" fill="#0f227a"/>
          <path id="Path_95" data-name="Path 95" d="M23.625,77.106l1.6,2.939c.265.493.54.981.81,1.464s.55.971.826,1.459c.556.971,1.147,1.916,1.719,2.876l1.776,2.871a.057.057,0,0,1-.016.078.063.063,0,0,1-.067,0,16.469,16.469,0,0,1-2.419-2.43c-.727-.883-1.365-1.828-2-2.773q-.459-.717-.9-1.449c-.151-.244-.291-.488-.431-.737s-.286-.493-.421-.742c-.545-1-1.064-2-1.516-3.058A.577.577,0,0,1,23.62,77.1v.01Z" transform="translate(-22.505 -53.091)" fill="#0f227a"/>
          <path id="Path_96" data-name="Path 96" d="M28.652,85.457l.836-3.115h0a.57.57,0,0,1,.7-.41.457.457,0,0,1,.182.088c.1.067.166.125.244.187s.151.125.218.187c.145.13.28.26.415.4a6.211,6.211,0,0,1,.722.914,4.668,4.668,0,0,1,.514,1.09,3.83,3.83,0,0,1,.161,1.241l-.8-.556h0a1.7,1.7,0,0,1,.2-.078l.182-.062a3.011,3.011,0,0,1,.374-.088,3.089,3.089,0,0,1,.794-.047,2.21,2.21,0,0,1,.831.213,1.853,1.853,0,0,1,.68.566,2.062,2.062,0,0,1,.343.748,2.639,2.639,0,0,1,.088.742,2.863,2.863,0,0,1-.369,1.355c-.14-.457-.223-.883-.332-1.277a1.956,1.956,0,0,0-.478-.95,1.1,1.1,0,0,0-.82-.275,2.621,2.621,0,0,0-.519.062c-.088.021-.177.042-.27.067l-.13.042-.114.036h0l-.042.01a.589.589,0,0,1-.737-.395.692.692,0,0,1-.026-.177,2.741,2.741,0,0,0-.114-.841,3.752,3.752,0,0,0-.384-.815,5.3,5.3,0,0,0-.587-.737c-.109-.114-.223-.228-.343-.332-.057-.052-.119-.1-.182-.156s-.13-.1-.177-.135l.883-.322-.836,3.115a.576.576,0,1,1-1.111-.3Z" transform="translate(-25.428 -55.549)" fill="#0f227a"/>
          <path id="Path_97" data-name="Path 97" d="M59.94,52.164a.568.568,0,0,1-.566-.192,20.862,20.862,0,0,0-6.713-5.426,18.5,18.5,0,0,0-2.181,4.922.575.575,0,1,1-1.116-.275,18.891,18.891,0,0,1,2.622-5.7.577.577,0,0,1,.68-.208,20.771,20.771,0,0,1,7.6,5.95.576.576,0,0,1-.073.81.565.565,0,0,1-.244.119Z" transform="translate(-35.393 -37.921)" fill="#0f227a"/>
          <path id="Path_98" data-name="Path 98" d="M73.835,62.369a.523.523,0,0,1-.13.016,3.408,3.408,0,0,0-1.044.239.586.586,0,0,1-.587-.088.573.573,0,0,1-.2-.561,7.844,7.844,0,0,0,.093-1.09,4.179,4.179,0,0,0-1.173-.078.6.6,0,0,1-.389-.088A18.888,18.888,0,0,0,57.89,57.524a15.9,15.9,0,0,0-5.363,1.506.576.576,0,1,1-.561-1.007,16.52,16.52,0,0,1,5.742-1.641,19.984,19.984,0,0,1,13.167,3.261,5.961,5.961,0,0,1,1.843.234.572.572,0,0,1,.415.556c0,.067,0,.436-.031.851a3.4,3.4,0,0,1,.607-.062.572.572,0,0,1,.571.582.578.578,0,0,1-.452.561Z" transform="translate(-36.51 -43.219)" fill="#0f227a"/>
          <path id="Path_99" data-name="Path 99" d="M56.293,52.8a.409.409,0,0,1-.436-.182c-1.532-2.451-1.34-6.49-1.329-6.661a.411.411,0,0,1,.82.042c0,.042-.187,3.956,1.2,6.184a.411.411,0,0,1-.13.566A.4.4,0,0,1,56.293,52.8Z" transform="translate(-37.878 -38.076)" fill="#0f227a"/>
          <path id="Path_100" data-name="Path 100" d="M59.714,54.238a.411.411,0,0,1-.467-.244,2.031,2.031,0,0,0-1.911-1.21.419.419,0,0,1-.322-.13.408.408,0,0,1-.109-.332,2.02,2.02,0,0,0-.618-1.516l-.722.639a.412.412,0,0,1-.545-.618l1.007-.893a.415.415,0,0,1,.53-.016,3.292,3.292,0,0,1,1.179,2.056,2.752,2.752,0,0,1,2.279,1.693.414.414,0,0,1-.218.54.337.337,0,0,1-.067.021Z" transform="translate(-38.054 -40.125)" fill="#0f227a"/>
          <path id="Path_101" data-name="Path 101" d="M100.392,67.215a4.08,4.08,0,0,1-3.572-.535.14.14,0,0,0-.166.005,2.253,2.253,0,0,1-1.957.472,2.164,2.164,0,0,1-1.3-1.21,3.53,3.53,0,0,1-.171-3.338c.784-1.49,2.84-2.482,6.116-2.939a4.3,4.3,0,0,1,3.3.914,4.007,4.007,0,0,1,1.5,2.876,3.082,3.082,0,0,1-2.134,3.219,9.678,9.678,0,0,1-1.615.53Zm-3.93-1.677a1.294,1.294,0,0,1,1.075.239c.472.374,1.63.851,4.029-.156a1.966,1.966,0,0,0,1.428-2.082,2.86,2.86,0,0,0-1.08-2.056,3.16,3.16,0,0,0-2.414-.67c-2.809.395-4.678,1.225-5.26,2.336a2.44,2.44,0,0,0,.192,2.305.155.155,0,0,0,.021.042,1.105,1.105,0,0,0,.576.561,1.191,1.191,0,0,0,.961-.3h0a1.291,1.291,0,0,1,.472-.213Z" transform="translate(-56.323 -44.836)" fill="#0f227a"/>
          <path id="Path_102" data-name="Path 102" d="M61.852,112.01c-.5.151-.971.26-1.464.363a14.125,14.125,0,0,1-1.49.228,7.648,7.648,0,0,1-3.136-.208l-.2-.078-.1-.042-.052-.021a.475.475,0,0,1-.067-.036,1.31,1.31,0,0,1-.7-1.075,1.236,1.236,0,0,1,.026-.337.822.822,0,0,1,.047-.161l.031-.078a.419.419,0,0,1,.031-.067,2.03,2.03,0,0,1,.286-.436l.047-.052.01-.01-.016.016a.365.365,0,0,0-.036.052.4.4,0,0,0-.062.254.418.418,0,0,0,.1.249.448.448,0,0,0,.239.145.066.066,0,0,1,.031.005h-.01l-.052-.01-.1-.016-.2-.031c-.13-.026-.265-.057-.395-.093a3.325,3.325,0,0,1-.789-.332,1.644,1.644,0,0,1-.68-.732,1.21,1.21,0,0,1,.016-1.007,1.52,1.52,0,0,1,.545-.633.156.156,0,0,1,.213.042.152.152,0,0,1,.021.114h0a5,5,0,0,0-.109.665.573.573,0,0,0,.1.41,1.806,1.806,0,0,0,.95.4c.1.021.213.036.317.052l.161.021.083.01h.062l.036.01.052.01a.73.73,0,0,1,.395.239.745.745,0,0,1,.166.415.717.717,0,0,1-.109.426c-.021.031-.042.057-.062.088l-.036.036-.016.016a.792.792,0,0,0-.1.177c-.01.031-.01.026-.01.036v.026a.11.11,0,0,0,.021.052.113.113,0,0,0,.047.036l.254.093a4.864,4.864,0,0,0,1.262.192,10.181,10.181,0,0,0,1.371-.052c.462-.047.924-.114,1.386-.2s.929-.182,1.371-.291h.016a.571.571,0,0,1,.7.415.582.582,0,0,1-.389.691Z" transform="translate(-37.175 -68.017)" fill="#0f227a"/>
          <path id="Path_103" data-name="Path 103" d="M84.312,170.693a15.952,15.952,0,0,1-6.111.187c-9.06-1.48-14.226-10.4-14.439-10.779a2.819,2.819,0,0,1-.2-.441l1.08-.4a2.54,2.54,0,0,0,.125.27c.2.358,5.1,8.821,13.624,10.213a14.831,14.831,0,0,0,5.675-.177,22.859,22.859,0,0,0,10.015-5.592,1.809,1.809,0,0,0-2.414-2.695c-4.361,3.9-8.624,5.55-12.663,4.9-3.827-.618-6.838-3.193-8.686-5.244l.857-.774c1.724,1.916,4.517,4.32,8.016,4.88,3.681.592,7.622-.961,11.713-4.621a2.964,2.964,0,0,1,3.951,4.418A23.964,23.964,0,0,1,84.323,170.7Z" transform="translate(-42.227 -92.739)" fill="#0f227a"/>
          <ellipse id="Ellipse_7" data-name="Ellipse 7" cx="2.399" cy="3.39" rx="2.399" ry="3.39" transform="translate(14.441 30.121) rotate(-49.71)" fill="#0f227a"/>
          <g id="Group_75" data-name="Group 75" transform="translate(18.14 29.276)">
            <ellipse id="Ellipse_8" data-name="Ellipse 8" cx="0.867" cy="1.225" rx="0.867" ry="1.225" transform="matrix(0.736, -0.677, 0.677, 0.736, 0, 1.174)" fill="#fff"/>
            <path id="Path_104" data-name="Path 104" d="M59.749,90.456a1.379,1.379,0,0,1-1.246-.493,1.174,1.174,0,0,1-.187-1.6.847.847,0,0,1,.768-.171,1.554,1.554,0,0,1,.815.493h0a1.571,1.571,0,0,1,.421.857.839.839,0,0,1-.234.753.7.7,0,0,1-.337.171ZM58.69,88.343a.538.538,0,0,0-.265.135c-.317.291-.228.909.2,1.376s1.033.6,1.355.312a.684.684,0,0,0,.182-.607,1.525,1.525,0,0,0-1.111-1.2.758.758,0,0,0-.358,0Z" transform="translate(-57.729 -87.831)" fill="#0f227a"/>
          </g>
          <ellipse id="Ellipse_9" data-name="Ellipse 9" cx="2.264" cy="3.203" rx="2.264" ry="3.203" transform="matrix(0.781, -0.625, 0.625, 0.781, 23.711, 18.362)" fill="#0f227a"/>
          <g id="Group_76" data-name="Group 76" transform="translate(26.706 18.879)">
            <ellipse id="Ellipse_10" data-name="Ellipse 10" cx="0.82" cy="1.158" rx="0.82" ry="1.158" transform="matrix(0.781, -0.625, 0.625, 0.781, 0, 1.026)" fill="#fff"/>
            <path id="Path_105" data-name="Path 105" d="M76.05,70.291a1.29,1.29,0,0,1-1.2-.54,1.505,1.505,0,0,1-.343-.836.8.8,0,0,1,.27-.7,1.113,1.113,0,0,1,1.48.4,1.505,1.505,0,0,1,.343.836.8.8,0,0,1-.27.7A.7.7,0,0,1,76.05,70.291ZM75.1,68.245a.5.5,0,0,0-.218.1.633.633,0,0,0-.208.561,1.36,1.36,0,0,0,.306.742c.369.462.929.633,1.251.379a.633.633,0,0,0,.208-.561,1.359,1.359,0,0,0-.306-.742h0A1.126,1.126,0,0,0,75.1,68.245Z" transform="translate(-74.196 -67.772)" fill="#0f227a"/>
          </g>
          <path id="Path_106" data-name="Path 106" d="M138.023,51.611a2.134,2.134,0,0,1-2.378-1.158,2.111,2.111,0,0,1-.078-1.656l6.012-16.272a2.112,2.112,0,0,1,2.658-1.277,2.088,2.088,0,0,1,1.241,1.1A2.111,2.111,0,0,1,145.556,34h0l-6.012,16.272A2.131,2.131,0,0,1,138.023,51.611Zm5.332-19.293a.96.96,0,0,0-.7.613L136.647,49.2a.968.968,0,1,0,1.817.67L144.476,33.6a.97.97,0,0,0-.6-1.256A.988.988,0,0,0,143.355,32.317Z" transform="translate(-76.784 -31.137)" fill="#0f227a"/>
          <path id="Path_107" data-name="Path 107" d="M106.739,103.453l-.369-1.09c3.536-1.194,4.891-3.775,4.974-5.789a3.369,3.369,0,0,0-1.615-3.344c-2.3-1-3.588-4.564-3.12-6.853a2.585,2.585,0,0,1,2.6-2.29,3.269,3.269,0,0,0,3.131-1.931A2.84,2.84,0,0,0,111.567,79c-3.006-2.939-3.4-6.76-1.007-9.73,2.16-2.684.254-4.605.171-4.683l.8-.826c.026.026,2.726,2.741-.083,6.23-2.419,3.006-1.116,6.2.914,8.188a4.027,4.027,0,0,1,1.033,4.413,4.408,4.408,0,0,1-4.19,2.653c-.3,0-1.2.01-1.48,1.365-.369,1.822.711,4.808,2.451,5.566a4.457,4.457,0,0,1,2.305,4.45c-.1,2.4-1.672,5.457-5.758,6.833Z" transform="translate(-62.81 -46.822)" fill="#0f227a"/>
          <path id="Path_108" data-name="Path 108" d="M151.609,97.769a1.1,1.1,0,0,1-.28.026c-4.512.021-4.906-4.346-5.285-8.572-.348-3.821-.7-7.767-3.889-8.915-4.185-1.506-4.548-4.055-4.839-6.106-.244-1.734-.421-2.991-2.632-3.582-5.976-1.6-4.891-6.978-4.88-7.03l1.127.239c-.036.177-.851,4.366,4.055,5.68,2.949.789,3.229,2.778,3.479,4.533.286,2.014.556,3.915,4.086,5.182,3.873,1.391,4.283,5.909,4.642,9.9.426,4.7.919,7.549,4.154,7.523h.021a.248.248,0,0,0,.1-.088c.109-.166.4-.909-.363-3.354a2.681,2.681,0,0,1,.109-1.916,3.6,3.6,0,0,0,.125-2.689,2.663,2.663,0,0,1-.1-1.469,1.476,1.476,0,0,1,.971-1.085,1.709,1.709,0,0,1,1.708.566,1.318,1.318,0,0,0,1.007.462c.41-.083.727-.633.8-.82l1.064.447a2.587,2.587,0,0,1-1.61,1.5h-.01a2.268,2.268,0,0,1-2.04-.742c-.286-.27-.5-.337-.587-.306a.332.332,0,0,0-.182.249,1.488,1.488,0,0,0,.068.826,4.709,4.709,0,0,1-.161,3.536,1.533,1.533,0,0,0-.062,1.1c.706,2.238.753,3.7.14,4.455a1.283,1.283,0,0,1-.727.457Zm-.213-1.121Zm0,0Z" transform="translate(-74.036 -46.74)" fill="#0f227a"/>
          <path id="Path_109" data-name="Path 109" d="M173.019,137.846c-.057-.244-1.423-6.049-.119-9.854a1.933,1.933,0,0,1,1.755-1.334,1.976,1.976,0,0,1,1.9,1.147,7.736,7.736,0,0,1,.628,2.29l-1.142.145a6.462,6.462,0,0,0-.53-1.947.814.814,0,0,0-1.516.073c-1.194,3.5.135,9.159.151,9.216l-1.121.27Z" transform="translate(-94.527 -77.062)" fill="#0f227a"/>
          <path id="Path_110" data-name="Path 110" d="M144.328,160.352c-2.554-1.179-3.287-.68-4.3.005-1.09.742-2.451,1.667-5.929.867a11.055,11.055,0,0,0-10.1,2.638l-.836-.789a12.048,12.048,0,0,1,11.2-2.97c2.985.685,4.019-.016,5.021-.7,1.121-.763,2.279-1.547,5.426-.1l-.483,1.049Z" transform="translate(-70.882 -92.372)" fill="#0f227a"/>
          <path id="Path_111" data-name="Path 111" d="M134.765,133.644a1.235,1.235,0,0,1-.826-.083c-.327-.161-1.329-.654-.556-4.709a1.749,1.749,0,0,0-.14-1.09c-1.007-2.087-2.549-5.934-1.552-8.245a2.86,2.86,0,0,1,1.848-1.641c2.622-.826,3.5.322,4.154,1.158.524.675.81,1.044,1.942.68a1.727,1.727,0,0,1,2.191.581c1.282,1.952-.758,7.134-4.444,11.308a5.941,5.941,0,0,1-2.622,2.046Zm-.317-1.116s.5.088,2.072-1.693c3.743-4.237,5.093-8.769,4.346-9.912-.057-.088-.213-.332-.872-.119a2.524,2.524,0,0,1-3.209-1.07c-.587-.753-1.044-1.345-2.9-.763a1.714,1.714,0,0,0-1.137,1c-.872,2.02.95,6.085,1.532,7.284a2.9,2.9,0,0,1,.239,1.812h0c-.447,2.331-.239,3.338-.068,3.458h0Z" transform="translate(-74.829 -72.704)" fill="#0f227a"/>
          <path id="Path_112" data-name="Path 112" d="M163.6,55.979a.585.585,0,0,1-.327-.021l-18.639-7,.4-1.08,18.1,6.8,4.2-11.178L149.168,36.67l.4-1.08,18.707,7.03a.557.557,0,0,1,.322.3.59.59,0,0,1,.016.441l-4.605,12.253a.557.557,0,0,1-.3.322.42.42,0,0,1-.114.036Z" transform="translate(-81.205 -33.278)" fill="#0f227a"/>
        </g>
      </g>
      <path id="Path_113" data-name="Path 113" d="M259.244,65.458a8.332,8.332,0,0,0-2.383-2.544,13.731,13.731,0,0,0-3.38-1.719,18.912,18.912,0,0,0-4.387-.955,16.658,16.658,0,0,0-4.533.093l-.083.016a11.012,11.012,0,0,0-3.582,1.262,7.438,7.438,0,0,0-2.663,2.565c-.026.042-.042.083-.062.119-.016-.026-.031-.057-.052-.088a9.366,9.366,0,0,0-2.741-2.653,13.1,13.1,0,0,0-3.681-1.6,16.438,16.438,0,0,0-4.418-.545c-2.591.021-5.218.088-7.814.208a3.617,3.617,0,0,0-.483.052,3.409,3.409,0,0,0-1.781.909,3.184,3.184,0,0,0-.737,1.075,3.423,3.423,0,0,0-1.023-1.059A3.571,3.571,0,0,0,213.165,60c-1.282.1-2.57.208-3.852.332-.1.01-.2.026-.3.042a3.411,3.411,0,0,0-1.978,1.116,3.267,3.267,0,0,0-.758,2.762l.057.291q-1.1-1.028-2.181-2.035a4.683,4.683,0,0,0-1.049-.732,4.022,4.022,0,0,0-2.492-.421q-1.519.21-3.043.447a.524.524,0,0,0-.088.016,3.414,3.414,0,0,0-2.181,1.376,3.331,3.331,0,0,0-.431.831,3.545,3.545,0,0,0-.852-.737,3.487,3.487,0,0,0-2.477-.457c-1.267.234-2.539.483-3.8.742a3.393,3.393,0,0,0-2.586,4.294l3.235,10.971a2.016,2.016,0,0,1,.119,1.023,1.172,1.172,0,0,1-.395.187,1.532,1.532,0,0,1-.244.062.775.775,0,0,1-.088.01,2.289,2.289,0,0,1-.535-1l-3.712-11.293a3.579,3.579,0,0,0-1.63-1.989,3.5,3.5,0,0,0-2.362-.415c-.057.01-.166.036-.223.047-1.257.312-2.508.639-3.759.971a3.333,3.333,0,0,0-2.17,1.8,3.52,3.52,0,0,0-.26.779,3.634,3.634,0,0,0-.81-.607,3.484,3.484,0,0,0-2.284-.374,2.439,2.439,0,0,0-.384.093c-1.1.332-2.2.67-3.292,1.023a3.635,3.635,0,0,0-2.43,2.295,5.641,5.641,0,0,0-.291,1.163c-.182,1.6-.343,3.219-.483,4.849-1.355-1.153-2.726-2.3-4.1-3.442a7.086,7.086,0,0,0-.981-.633,3.7,3.7,0,0,0-2.471-.395,4.266,4.266,0,0,0-.768.218q-1.62.623-3.229,1.277a3.366,3.366,0,0,0-1.968,2.212,3.64,3.64,0,0,0,.228,2.586l9.766,20.436a3.689,3.689,0,0,0,1.713,1.75,3.984,3.984,0,0,0,.467.187,2.99,2.99,0,0,0,.114.509l6.111,19.444a3.487,3.487,0,0,0,2.04,2.17,4.113,4.113,0,0,0,2.321.244,1.232,1.232,0,0,0,.135-.026c1.786-.379,3.608-.753,5.415-1.106a3.852,3.852,0,0,0,2.29-1.355,3.411,3.411,0,0,0,.659-3.094l-1.111-3.93q1.347-.335,2.695-.654a24.441,24.441,0,0,0,5.327-1.859,14.136,14.136,0,0,0,4.1-2.985,10.11,10.11,0,0,0,2.4-4.366,10.39,10.39,0,0,0,.3-2.97l2.944,14.449a3.791,3.791,0,0,0,1.62,2.383,3.934,3.934,0,0,0,2.669.649c6.558-.774,13.224-1.35,19.807-1.708a3.382,3.382,0,0,0,.467-.057A3.643,3.643,0,0,0,224.385,116a3.818,3.818,0,0,0,.758-2.866l-.633-4.74a3.922,3.922,0,0,0-1.4-2.529,3.842,3.842,0,0,0-2.695-.9,3.922,3.922,0,0,0,1.8-3.842l-.649-4.7a3.839,3.839,0,0,0-1.537-2.58A4.08,4.08,0,0,0,219,93.3a3.893,3.893,0,0,0,1.828-1.407,3.98,3.98,0,0,0,.467-.877,3.833,3.833,0,0,0,.581.54,3.793,3.793,0,0,0,2.975.722c1.651-.291,3.328-.571,5.005-.836l2.155,21.838a4.137,4.137,0,0,0,1.189,2.528,3.83,3.83,0,0,0,2.778,1.173c1.822-.016,3.671-.021,5.488-.005a3.681,3.681,0,0,0,.68-.057,3.623,3.623,0,0,0,2.238-1.381,4,4,0,0,0,.815-2.793l-1.776-23.187c1.776-.213,3.562-.41,5.327-.592.1-.01.192-.026.291-.042a3.83,3.83,0,0,0,2.425-1.537,4.245,4.245,0,0,0,.836-2.778l-.3-5.566c-.005-.1-.031-.2-.047-.306.208-.042.415-.083.613-.13a13.592,13.592,0,0,0,3.344-1.267,8.634,8.634,0,0,0,2.565-2.124,6.611,6.611,0,0,0,1.376-3.011c.088-.54.161-1.116.213-1.713s.083-1.189.093-1.791a6.379,6.379,0,0,0-.9-3.25Zm-90.18,30.3a3.672,3.672,0,0,0-.213-.607l-.945-2.1a3.652,3.652,0,0,0,.867-.275c.519-.239,1.038-.478,1.563-.711a3.889,3.889,0,0,0,.67-.389l.722,1.791a3.8,3.8,0,0,0,.639,1.033c-1.1.415-2.2.831-3.3,1.256Zm10.472,7.689c-.888.249-1.781.5-2.669.758l-.01-.036q1.41-.467,2.819-.919a6.361,6.361,0,0,1,.8-.208l.182-.031A5.674,5.674,0,0,1,179.537,103.443Zm12.938-12.206,1.293,6.339a9.631,9.631,0,0,0-1.734-2.944,9.3,9.3,0,0,0-4.237-2.747,12.913,12.913,0,0,0-5.254-.436c-.389.042-.789.1-1.189.171a3.676,3.676,0,0,0-.13-2.113l-.685-1.812a9.756,9.756,0,0,0,2.471,1.76,9.344,9.344,0,0,0,4.081.945,11.4,11.4,0,0,0,2.035-.182,14.074,14.074,0,0,0,2.134-.576,14.784,14.784,0,0,0,1.464-.628,3.692,3.692,0,0,0-.249,2.227Zm3.723-4.761a10.72,10.72,0,0,0,1.412-1.88,9.887,9.887,0,0,0,1.085-2.788l.317,1.277a3.381,3.381,0,0,0,1.547,2.1c.01,0,.016.005.026.01q-2.2.623-4.382,1.277Zm12.409-3.432a3.388,3.388,0,0,0,.384-2.425l-.047-.213c.493.472.992.945,1.49,1.428a3.655,3.655,0,0,0,.727.556c-.852.213-1.7.436-2.554.654Zm11.9-1.77a4.245,4.245,0,0,0-.524,1.038,3.638,3.638,0,0,0-1.443-.992c.088-.093.177-.182.254-.28a3.285,3.285,0,0,0,.395-.691,3.333,3.333,0,0,0,.6.5,3.6,3.6,0,0,0,.774.358c-.021.026-.042.047-.062.073ZM228.954,69.1l.114,1.563c.016.187.021.384.026.6a3.016,3.016,0,0,1-.488.125c-.14.026-.291.047-.447.062-.083.01-.166.016-.249.026l-.343-3.12h0a3.826,3.826,0,0,1,1.324.135c.031.223.052.431.062.618Zm7.876,7.9a9.124,9.124,0,0,0,1.641-2.072,7.658,7.658,0,0,0,1.34,1.563C238.814,76.647,237.822,76.824,236.831,76.995Zm12.757-7.918c0,.2,0,.41-.01.623s-.031.421-.052.618c-.016.114-.026.223-.042.332-.036.01-.088.021-.156.036h0a4.324,4.324,0,0,1-.789.052,3.678,3.678,0,0,1-.826-.078c-.01-.093-.016-.2-.021-.322-.005-.26-.01-.524-.005-.789s.01-.53.021-.779c0-.067.005-.13.01-.182V68.6a3.258,3.258,0,0,1,.82-.016,3.412,3.412,0,0,1,.872.156c.068.026.125.047.171.067,0,.083,0,.177.005.27Z" transform="translate(-78.872 -39.519)" fill="#33348d"/>
      <g id="Group_79" data-name="Group 79" transform="translate(80.921 35.663)">
        <path id="Path_114" data-name="Path 114" d="M182.908,122.988a22.8,22.8,0,0,1,5.26-1.288,10.535,10.535,0,0,1,4.278.337,6.733,6.733,0,0,1,3.11,2.009,8.043,8.043,0,0,1,1.729,3.64,8.652,8.652,0,0,1,0,4.128,7.665,7.665,0,0,1-1.817,3.307,11.751,11.751,0,0,1-3.422,2.471,22.717,22.717,0,0,1-4.87,1.693q-2.78.662-5.55,1.365.958,3.38,1.911,6.765a.732.732,0,0,1-.166.7,1.176,1.176,0,0,1-.737.421q-2.8.545-5.6,1.147a1.474,1.474,0,0,1-.888-.073.819.819,0,0,1-.524-.514q-3.131-9.976-6.267-19.953a.809.809,0,0,1,.166-.727,1.645,1.645,0,0,1,.753-.587q6.269-2.539,12.637-4.839Zm-2.741,12.487q2.679-.794,5.374-1.552a6.753,6.753,0,0,0,2.882-1.5,2.418,2.418,0,0,0,.67-2.5,2.2,2.2,0,0,0-1.755-1.8,6.449,6.449,0,0,0-3.24.317q-2.718.872-5.415,1.791.74,2.617,1.48,5.239Z" transform="translate(-169.321 -105.096)" fill="#00abeb"/>
        <path id="Path_115" data-name="Path 115" d="M255.987,125.8a1.171,1.171,0,0,1,.888.286,1.278,1.278,0,0,1,.467.841L258,131.8a1.155,1.155,0,0,1-.228.893.992.992,0,0,1-.774.41q-10.265.561-20.5,1.77a1.278,1.278,0,0,1-.883-.218,1.09,1.09,0,0,1-.5-.706q-2.6-12.772-5.208-25.545a1.1,1.1,0,0,1,.208-.862,1.436,1.436,0,0,1,.794-.576q10.568-3.17,21.334-5.685a1.146,1.146,0,0,1,.929.161,1.085,1.085,0,0,1,.488.784q.327,2.43.654,4.855a1.248,1.248,0,0,1-.249.94,1.29,1.29,0,0,1-.815.535q-7.009,1.371-13.961,3.017c.27,1.506.535,3.006.8,4.512q6.394-1.347,12.84-2.451a1.2,1.2,0,0,1,1.386,1.023c.223,1.61.441,3.219.665,4.829a1.211,1.211,0,0,1-.239.914,1.126,1.126,0,0,1-.794.472q-6.355.833-12.669,1.9c.28,1.558.556,3.12.836,4.678q6.916-.966,13.868-1.646Z" transform="translate(-198.439 -95.296)" fill="#00abeb"/>
        <path id="Path_116" data-name="Path 116" d="M310.151,89.8a1.061,1.061,0,0,1,.919.306,1.4,1.4,0,0,1,.431.971c.1,1.905.2,3.806.3,5.711a1.6,1.6,0,0,1-.317,1.059,1.2,1.2,0,0,1-.857.519q-4.073.421-8.131.935,1.012,13.208,2.025,26.422a1.366,1.366,0,0,1-.27.976.954.954,0,0,1-.794.4c-1.9-.016-3.785-.01-5.68.005a1.178,1.178,0,0,1-.862-.384,1.492,1.492,0,0,1-.441-.935q-1.246-12.656-2.5-25.306-4.042.615-8.063,1.319a1.135,1.135,0,0,1-.914-.223,1.193,1.193,0,0,1-.478-.826c-.2-1.656-.41-3.318-.613-4.974a1.342,1.342,0,0,1,.26-.971,1.36,1.36,0,0,1,.836-.566q12.461-2.664,25.14-4.444Z" transform="translate(-224.411 -89.788)" fill="#00abeb"/>
      </g>
      <g id="Group_80" data-name="Group 80" transform="translate(68.316 19.407)">
        <path id="Path_117" data-name="Path 117" d="M160.208,95.624a3.28,3.28,0,0,1-.571-.363q-2.336-2.064-4.761-4.154,2.383,5.3,4.771,10.586a1.127,1.127,0,0,1,.078.711.692.692,0,0,1-.343.5c-1.054.556-2.1,1.121-3.141,1.7a.585.585,0,0,1-.576-.01,1.059,1.059,0,0,1-.488-.509q-5.015-10.49-10.026-20.976a.992.992,0,0,1-.073-.706.684.684,0,0,1,.41-.478q1.628-.662,3.266-1.293a1.153,1.153,0,0,1,1.007.026,3.922,3.922,0,0,1,.6.374q4.276,3.551,8.3,7.04.3-5.249.877-10.311a3.676,3.676,0,0,1,.171-.618,1.027,1.027,0,0,1,.722-.618c1.111-.353,2.222-.7,3.338-1.033a.82.82,0,0,1,.639.078.933.933,0,0,1,.447.509q3.707,9.844,7.414,19.683a1.008,1.008,0,0,1,.021.665.7.7,0,0,1-.379.452c-1.09.472-2.17.961-3.25,1.459a.622.622,0,0,1-.571-.031.942.942,0,0,1-.436-.5q-2.072-5.14-4.143-10.275-.226,3.045-.348,6.158a3.219,3.219,0,0,1-.13.67.829.829,0,0,1-.488.535c-.54.244-1.085.488-1.625.737a.766.766,0,0,1-.711.005Z" transform="translate(-145.044 -66.642)" fill="#ff9100"/>
        <path id="Path_118" data-name="Path 118" d="M208.325,65.126a.85.85,0,0,1,.618.119.8.8,0,0,1,.379.488q1.488,5.553,2.98,11.1a9.531,9.531,0,0,1,.322,3.557,7.553,7.553,0,0,1-.966,2.98,8.128,8.128,0,0,1-2.066,2.347,10.627,10.627,0,0,1-3,1.625,9.729,9.729,0,0,1-3.338.618,6.835,6.835,0,0,1-3-.685,7.579,7.579,0,0,1-2.523-2.051,11.338,11.338,0,0,1-1.869-3.442q-2.126-5.981-4.247-11.957a.79.79,0,0,1,.031-.633.7.7,0,0,1,.467-.389q1.9-.514,3.811-.986a.837.837,0,0,1,.633.1.889.889,0,0,1,.415.5q1.908,5.794,3.811,11.594a4.569,4.569,0,0,0,1.687,2.5,2.968,2.968,0,0,0,2.679.213,3.1,3.1,0,0,0,2.077-1.724,4.366,4.366,0,0,0,0-2.918l-3.318-11.261a.719.719,0,0,1,.073-.592.7.7,0,0,1,.493-.343c1.282-.26,2.565-.514,3.852-.748Z" transform="translate(-167.414 -61.667)" fill="#ff9100"/>
        <path id="Path_119" data-name="Path 119" d="M250.922,77.679a1.123,1.123,0,0,1-.774-.073,1.837,1.837,0,0,1-.426-.28q-3.871-3.715-8.079-7.653.989,4.478,1.973,8.961a.727.727,0,0,1-.1.556.745.745,0,0,1-.452.343q-1.721.444-3.437.924a.688.688,0,0,1-.55-.078.72.72,0,0,1-.337-.457q-2.173-8.8-4.34-17.6a.649.649,0,0,1,.109-.556.748.748,0,0,1,.509-.306q1.534-.234,3.079-.452a1.391,1.391,0,0,1,.867.13,2.229,2.229,0,0,1,.483.317q4.392,4.081,8.427,7.954l-1.635-8.66a.567.567,0,0,1,.145-.509.773.773,0,0,1,.524-.26q1.947-.187,3.9-.337a.934.934,0,0,1,.6.156.643.643,0,0,1,.312.452q1.3,8.022,2.6,16.048a.652.652,0,0,1-.135.514.772.772,0,0,1-.478.3q-1.386.273-2.773.571Z" transform="translate(-187.997 -59.04)" fill="#ff9100"/>
        <path id="Path_120" data-name="Path 120" d="M285.539,58.48a14.109,14.109,0,0,1,3.8.462,10.6,10.6,0,0,1,3.006,1.3,6.8,6.8,0,0,1,2.014,1.937,5.316,5.316,0,0,1,.877,2.409c.031.3.052.571.062.82s.021.488.031.717.021.462.031.706.01.5.005.789a5.479,5.479,0,0,1-.623,2.451,6.621,6.621,0,0,1-1.661,2.02,9.6,9.6,0,0,1-2.56,1.506,13.042,13.042,0,0,1-3.359.851c-2.44.306-4.865.659-7.29,1.064a.714.714,0,0,1-.535-.109.586.586,0,0,1-.28-.421q-1.075-7.8-2.149-15.6a.521.521,0,0,1,.177-.472.807.807,0,0,1,.54-.218q3.956-.179,7.913-.208Zm4.356,6.121c-.234-1.693-1.625-2.539-4.164-2.461-.992.031-1.989.073-2.98.119q.483,4.431.971,8.863,1.48-.164,2.965-.312c2.326-.228,3.479-1.168,3.448-2.876,0-.312-.016-.607-.036-.877s-.042-.54-.057-.8-.036-.524-.057-.789-.052-.556-.093-.867Z" transform="translate(-208.439 -58.479)" fill="#ff9100"/>
        <path id="Path_121" data-name="Path 121" d="M318.392,64.9a4.6,4.6,0,0,1,.665-2.17,4.909,4.909,0,0,1,1.771-1.687,8.555,8.555,0,0,1,2.85-.976,14.326,14.326,0,0,1,3.9-.067,16.462,16.462,0,0,1,3.852.831,11.392,11.392,0,0,1,2.793,1.407A5.78,5.78,0,0,1,335.894,64a3.836,3.836,0,0,1,.55,1.947c-.005.509-.036,1.044-.083,1.594s-.114,1.07-.192,1.547a4.011,4.011,0,0,1-.852,1.828A6.164,6.164,0,0,1,333.5,72.4a10.983,10.983,0,0,1-2.736,1.028,16.8,16.8,0,0,1-3.593.436,14.5,14.5,0,0,1-3.577-.306,8.177,8.177,0,0,1-2.648-1.07,5.414,5.414,0,0,1-1.719-1.713,5.028,5.028,0,0,1-.737-2.17c-.052-.566-.088-1.179-.1-1.833S318.371,65.5,318.392,64.9Zm12.528,3.785c.031-.223.062-.467.1-.742s.057-.55.073-.836.021-.561.016-.831-.01-.509-.021-.722a2.119,2.119,0,0,0-.26-.883,2.345,2.345,0,0,0-.665-.742,3.928,3.928,0,0,0-1.106-.556,6.527,6.527,0,0,0-1.573-.3,5.923,5.923,0,0,0-1.584.062,3.365,3.365,0,0,0-1.132.41,2.08,2.08,0,0,0-.706.685,2.23,2.23,0,0,0-.312.9,5.246,5.246,0,0,0-.078.763c-.01.286-.021.582-.021.888s0,.6.01.9a6.127,6.127,0,0,0,.067.8,2.341,2.341,0,0,0,.955,1.651,4.267,4.267,0,0,0,2.58.654,4.566,4.566,0,0,0,2.6-.582,2.382,2.382,0,0,0,1.064-1.516Z" transform="translate(-228.38 -59.162)" fill="#ff9100"/>
      </g>
    </g>
  </g>
</svg>
